<svg xmlns="http://www.w3.org/2000/svg" viewBox="0 0 884.97 154"><defs><style>.cls-1{fill:#049ba1;fill-rule:evenodd;}.cls-2{fill:#b5935d;}</style></defs><g id="Layer_2" data-name="Layer 2"><g id="Layer_1-2" data-name="Layer 1"><path class="cls-1" d="M731.81,74.84H735l.1.14a3.8,3.8,0,0,0,2.62,1.66l1.09.19,2.37-.61-.9-.24a3.35,3.35,0,0,1-1.77-1.14H885v4.08H738.65a3.81,3.81,0,0,1,1.64-1.1l.89-.33-2.36-.66-1.07.28a4.29,4.29,0,0,0-2,1.1,4.79,4.79,0,0,0-.57.71h-3.22a5.34,5.34,0,0,1,.7-.94,3.59,3.59,0,0,1,1.68-.91l.89-.23-.9-.16a3.14,3.14,0,0,1-2.16-1.36,5,5,0,0,1-.32-.48ZM0,78.92H0V74.84H146a3.9,3.9,0,0,1-1.64,1.1l-.89.33,2.36.66,1.07-.28a4.29,4.29,0,0,0,2-1.1,4.79,4.79,0,0,0,.57-.71h3.22a5.34,5.34,0,0,1-.7.94,3.49,3.49,0,0,1-1.69.91l-.88.23.9.16a3.17,3.17,0,0,1,2.17,1.37c.11.15.21.31.31.47h-3.2l-.09-.14a3.84,3.84,0,0,0-2.63-1.66l-1.09-.19-2.37.61.9.24a3.29,3.29,0,0,1,1.77,1.14Zm192.06-4.08h3.19l.1.14A3.84,3.84,0,0,0,198,76.64l1.1.19,2.37-.61-.9-.24a3.31,3.31,0,0,1-1.77-1.14h36.3l-2,2,2,2H198.9a3.81,3.81,0,0,1,1.64-1.1l.89-.33-2.36-.66-1.07.28a4.37,4.37,0,0,0-2.05,1.1,5.54,5.54,0,0,0-.57.71h-3.21a5.34,5.34,0,0,1,.7-.94,3.59,3.59,0,0,1,1.68-.91l.88-.23-.89-.16a3.16,3.16,0,0,1-2.17-1.36c-.11-.16-.21-.31-.31-.48Zm114.08,0h57.43l-2,2,2,2H306.14l2-2-2-2Zm215.23,0h57.09l-2,2,2,2H521.37l2-2-2-2Zm128.16,0h36.18a3.93,3.93,0,0,1-1.65,1.1l-.89.33,2.37.66,1.07-.28a4.34,4.34,0,0,0,2-1.1,5.54,5.54,0,0,0,.57-.71h3.21a4.89,4.89,0,0,1-.7.94,3.51,3.51,0,0,1-1.68.91l-.88.23.9.16a3.15,3.15,0,0,1,2.16,1.37,4.76,4.76,0,0,1,.31.47h-3.19l-.1-.14a3.82,3.82,0,0,0-2.62-1.66l-1.09-.19-2.38.61.9.24a3.26,3.26,0,0,1,1.77,1.14H649.54l2-2Z"/><path class="cls-1" d="M587.43,50.31H603l11-11,11,11h15.56V65.88l11,11-11,11v15.57H625l-11,11-11-11H587.43V87.88l-11-11,11-11V50.31ZM606.57,59h-10.5V69.45h0l-7.42,7.42L594,82.2v0l2.1,2.11h0V94.79h10.5l2.12,2.12h0l5.3,5.3,5.31-5.3h0l2.13-2.12H631.9V84.3h0L634,82.16h0l5.29-5.29-7.42-7.42h0V59H621.39L614,51.55,606.57,59Z"/><path class="cls-1" d="M244,50.31H259.6l11-11,11,11h15.56V65.88l11,11-11,11v15.57H281.61l-11,11-11-11H244V87.88l-11-11,11-11V50.31ZM263.18,59h-10.5V69.45h0l-7.42,7.42,5.31,5.32v0l2.11,2.11h0V94.79h10.5l2.12,2.12h0l5.3,5.3,5.3-5.3h0L278,94.79h10.5V84.3h0l2.13-2.13h0l5.29-5.29-7.42-7.42h0V59H278l-7.41-7.41L263.18,59Z"/><path class="cls-1" d="M712.13,48l.71-2.57.36,1a4.14,4.14,0,0,0,1.29,1.87,10.94,10.94,0,0,0,1.67,1.05,5.35,5.35,0,0,1,1.72,1.39,3.23,3.23,0,0,1,.63,1.53c0,.25.08.48.12.72l.46-.56a3.17,3.17,0,0,1,1.31-1,2.67,2.67,0,0,1,.4-.13,5.6,5.6,0,0,1,1.43-.13c.5,0,1,0,1.49,0A3.9,3.9,0,0,0,726.59,50l.72-.71-.72,2.55-.77.93a4.17,4.17,0,0,1-3,1.56c-.51.06-1,.06-1.52.08a4.52,4.52,0,0,0-1.46.25,2.54,2.54,0,0,0-.41.18,4,4,0,0,0-1.4,1.32c-.17.24-.33.48-.5.71,0-.28,0-.57-.08-.86a4,4,0,0,0-.55-1.85,4.92,4.92,0,0,0-1.66-1.61,10,10,0,0,1-1.64-1.17,4.72,4.72,0,0,1-1.19-2.22l-.3-1.16Zm-10.3,40.63h0l-4.46-6.75h0l4.46,6.75Zm-5-14.82Zm.5-1.85h0l9.84-9.85h0l-9.84,9.85Zm4.46-6.74Zm7.24-3.61Zm13.46,3.6Zm-5.39-3.1Zm6.74,4.46h0L727.49,80l-3.61-13.46ZM727,81.84Zm-9.85,9.85h0l5.39-3.1h0l-5.39,3.1Zm-4.76-38.83h0l-.25-1-.17,1a3.41,3.41,0,0,1-1.48,2.35c-.34.25-.7.46-1.05.69a4.17,4.17,0,0,0-.95.77,2.73,2.73,0,0,0-.21.3,3.33,3.33,0,0,0-.46,1.53,8.14,8.14,0,0,1-.18,1.39,7.92,7.92,0,0,1-.86-1.12,3.43,3.43,0,0,0-1.15-1.09,4.12,4.12,0,0,0-1.85-.46,7.73,7.73,0,0,1-1.66-.17A3.86,3.86,0,0,1,700.34,56l-.69-.7.34.93a3.45,3.45,0,0,1-.11,2.78c-.17.38-.38.74-.57,1.11a4,4,0,0,0-.43,1.15,2.21,2.21,0,0,0,0,.37,3.33,3.33,0,0,0,.37,1.54,8.11,8.11,0,0,1,.54,1.3,7.42,7.42,0,0,1-1.3-.54,3.61,3.61,0,0,0-1.55-.37,4.08,4.08,0,0,0-1.83.53,8.3,8.3,0,0,1-1.52.68,3.87,3.87,0,0,1-2.08-.06l-1-.26.76.63a3.43,3.43,0,0,1,1.29,2.46c0,.42,0,.84.07,1.26a4.08,4.08,0,0,0,.2,1.2,2.07,2.07,0,0,0,.15.34,3.43,3.43,0,0,0,1.09,1.15,8.53,8.53,0,0,1,1.12.86,7.35,7.35,0,0,1-1.4.18,3.54,3.54,0,0,0-1.52.46A4.05,4.05,0,0,0,691,74.34a7.57,7.57,0,0,1-1,1.35,3.69,3.69,0,0,1-1.82,1l-1,.26,1,.17a3.41,3.41,0,0,1,2.35,1.48c.25.34.46.7.69,1a4.39,4.39,0,0,0,.77,1,2.73,2.73,0,0,0,.3.21,3.41,3.41,0,0,0,1.52.46,7.35,7.35,0,0,1,1.4.18,8.53,8.53,0,0,1-1.12.86A3.43,3.43,0,0,0,693,83.44a4,4,0,0,0-.46,1.85,7.73,7.73,0,0,1-.17,1.66,3.77,3.77,0,0,1-1.09,1.76l-.7.7.93-.34a3.43,3.43,0,0,1,2.77.11c.39.17.75.38,1.12.57a3.89,3.89,0,0,0,1.15.43l.36,0a3.47,3.47,0,0,0,1.55-.37,7.42,7.42,0,0,1,1.3-.54,8.11,8.11,0,0,1-.54,1.3,3.34,3.34,0,0,0-.37,1.55,4.08,4.08,0,0,0,.53,1.83,8.3,8.3,0,0,1,.68,1.52,3.83,3.83,0,0,1-.06,2.07l-.26,1,.63-.76a3.44,3.44,0,0,1,2.46-1.3c.42,0,.83,0,1.25-.06a4.14,4.14,0,0,0,1.21-.2,2.07,2.07,0,0,0,.34-.15A3.34,3.34,0,0,0,706.77,95a8.53,8.53,0,0,1,.86-1.12,8.12,8.12,0,0,1,.18,1.4,3.41,3.41,0,0,0,.46,1.52,3.94,3.94,0,0,0,1.37,1.32,9.23,9.23,0,0,1,1.35,1,3.94,3.94,0,0,1,1,1.83l.25,1,.17-1a3.43,3.43,0,0,1,1.49-2.34c.33-.25.7-.46,1-.69a4.39,4.39,0,0,0,1-.77c.07-.1.15-.2.21-.3a3.4,3.4,0,0,0,.45-1.52,8.13,8.13,0,0,1,.19-1.4,9.49,9.49,0,0,1,.86,1.12,3.34,3.34,0,0,0,1.15,1.09,4.12,4.12,0,0,0,1.85.46,7.58,7.58,0,0,1,1.65.17A3.73,3.73,0,0,1,724,97.79l.7.7-.34-.93a3.39,3.39,0,0,1,.11-2.77c.17-.39.38-.75.57-1.12a4.19,4.19,0,0,0,.43-1.15c0-.12,0-.24,0-.36a3.61,3.61,0,0,0-.37-1.55,8.11,8.11,0,0,1-.54-1.3,8.11,8.11,0,0,1,1.3.54,3.43,3.43,0,0,0,1.54.37,4.08,4.08,0,0,0,1.84-.53A8.52,8.52,0,0,1,730.8,89a3.87,3.87,0,0,1,2.08.06l1,.26-.75-.63a3.44,3.44,0,0,1-1.3-2.46c0-.42,0-.84-.06-1.26a4.08,4.08,0,0,0-.2-1.2,3.49,3.49,0,0,0-.15-.34,3.43,3.43,0,0,0-1.09-1.15,7.92,7.92,0,0,1-1.12-.86,7.25,7.25,0,0,1,1.39-.18,3.54,3.54,0,0,0,1.52-.46,4.05,4.05,0,0,0,1.33-1.37,8.11,8.11,0,0,1,1-1.35,3.89,3.89,0,0,1,1.83-1l1-.25-1-.17a3.5,3.5,0,0,1-2.35-1.49c-.24-.34-.45-.7-.68-1.05a4.39,4.39,0,0,0-.77-.95,2.11,2.11,0,0,0-.31-.21,3.54,3.54,0,0,0-1.52-.46,7.25,7.25,0,0,1-1.39-.18,7.92,7.92,0,0,1,1.12-.86,3.31,3.31,0,0,0,1.08-1.15,4,4,0,0,0,.47-1.85,8.24,8.24,0,0,1,.16-1.65,3.82,3.82,0,0,1,1.1-1.77l.7-.7-.93.34a3.45,3.45,0,0,1-2.78-.11c-.38-.17-.74-.38-1.11-.57a4.11,4.11,0,0,0-1.15-.43l-.37,0a3.56,3.56,0,0,0-1.54.37,8.11,8.11,0,0,1-1.3.54,7.75,7.75,0,0,1,.54-1.3,3.45,3.45,0,0,0,.36-1.54,4.07,4.07,0,0,0-.52-1.84,7.85,7.85,0,0,1-.68-1.51,3.87,3.87,0,0,1,.06-2.08l.26-1L724,56a3.41,3.41,0,0,1-2.45,1.3c-.42,0-.84,0-1.26.06a4.2,4.2,0,0,0-1.21.2l-.33.15a3.56,3.56,0,0,0-1.16,1.09,7.85,7.85,0,0,1-.85,1.12,8.15,8.15,0,0,1-.19-1.39,3.44,3.44,0,0,0-.45-1.53,4.12,4.12,0,0,0-1.37-1.32,8.72,8.72,0,0,1-1.35-1,3.82,3.82,0,0,1-1-1.83Zm4.71,7.87h0l.1-.08a8.58,8.58,0,0,0,1.07-1.35,2.5,2.5,0,0,1,.87-.84.67.67,0,0,1,.21-.09,3,3,0,0,1,.95-.15c.45,0,.89,0,1.34-.07a5,5,0,0,0,1.69-.47,4.27,4.27,0,0,0,.13.77,9.69,9.69,0,0,0,.77,1.74,3,3,0,0,1,.43,1.46,2.62,2.62,0,0,1-.28,1.17,8.31,8.31,0,0,0-.64,1.61s0,.08,0,.12a4.27,4.27,0,0,1-1.22-.2l-.34-.09a7.72,7.72,0,0,0,.15-4.87h0a7.7,7.7,0,0,0-4.13,2.56l-.25-.24a4.54,4.54,0,0,1-.79-1Zm-.94,1.34h-7.94l-6.88,4-4,6.87v7.94l4,6.87,6.88,4h7.94l6.87-4,4-6.87V72.91L723,66l-6.87-4Zm8.35,3.28h0a5.18,5.18,0,0,0,.2,1.23l.1.34a7.65,7.65,0,0,1,4.87-.15v0a7.72,7.72,0,0,1-2.56,4.14l.24.25a4.81,4.81,0,0,0,1,.79l.09-.1a8.14,8.14,0,0,1,1.35-1.07,2.59,2.59,0,0,0,.84-.87,3.33,3.33,0,0,0,.36-1.48,8.61,8.61,0,0,1,.2-1.89,3.62,3.62,0,0,1,.27-.74,4.92,4.92,0,0,1-1.7-.44c-.41-.18-.79-.4-1.19-.61a3.58,3.58,0,0,0-.91-.35l-.22,0a2.63,2.63,0,0,0-1.17.29,8.31,8.31,0,0,1-1.61.64l-.13,0Zm-10-4.38h0l.34-.09a4.7,4.7,0,0,0,1.17-.44l0-.12a9,9,0,0,1-.25-1.71,2.59,2.59,0,0,0-.33-1.16,3.19,3.19,0,0,0-1.11-1.05,8.34,8.34,0,0,1-1.53-1.12,4.77,4.77,0,0,1-.51-.6A4.81,4.81,0,0,1,711,55.93c-.37.26-.75.49-1.13.73a3.4,3.4,0,0,0-.75.61,1,1,0,0,0-.13.18,2.48,2.48,0,0,0-.34,1.16,8.31,8.31,0,0,1-.25,1.71.56.56,0,0,1,0,.12,4.63,4.63,0,0,0,1.16.44l.34.09a7.79,7.79,0,0,1,2.3-4.29h0A7.72,7.72,0,0,1,714.49,61Zm6,1.47h0c.47-3.31,2.62-2.06,0,0Zm-4.14-1.24h0c.08.14.16.28.22.37h-.32l-.27-.16.37-.21Zm7,4.47h0l-.15-.27h.43v.43l-.28-.16Zm5.24,7.39h0l.12,0a8.22,8.22,0,0,0,1.71.26,2.51,2.51,0,0,1,1.16.33l.18.13a3.45,3.45,0,0,1,.61.76c.24.37.47.76.73,1.12a4.66,4.66,0,0,0,1.25,1.22,3.68,3.68,0,0,0-.6.51A8.7,8.7,0,0,0,732.66,79a3.11,3.11,0,0,1-1,1.11,2.64,2.64,0,0,1-1.16.34,7.59,7.59,0,0,0-1.71.25l-.12,0a4.78,4.78,0,0,1-.44-1.16l-.09-.34a7.79,7.79,0,0,0,4.29-2.3v0a7.72,7.72,0,0,0-4.29-2.29l.09-.35a4.78,4.78,0,0,1,.44-1.16Zm-2-4.52h0c2.06-2.63,3.31-.47,0,0Zm.87,4.24h0v-.32l.37.22c-.08.14-.16.28-.22.37l-.15-.27Zm.83,9h0a4.81,4.81,0,0,0-1,.79l-.24.25A7.72,7.72,0,0,1,729.68,87v0a7.72,7.72,0,0,1-4.87-.16l-.1.34a5.18,5.18,0,0,0-.2,1.23l.13,0a8.31,8.31,0,0,1,1.61.64,2.53,2.53,0,0,0,1.17.29,3.26,3.26,0,0,0,1.46-.43,8.46,8.46,0,0,1,1.74-.77,3.47,3.47,0,0,1,.77-.14,5,5,0,0,1-.47-1.68c0-.45,0-.9-.07-1.34a3.11,3.11,0,0,0-.15-1,1,1,0,0,0-.09-.21,2.59,2.59,0,0,0-.84-.87,8.14,8.14,0,0,1-1.35-1.07l-.09-.1Zm.53-4.91h0c3.1-1.25,3.1,1.25,0,0ZM727.49,81h0l.15-.27c.06.09.14.23.22.37l-.37.22V81Zm-3.79,8.23h0a4.27,4.27,0,0,0-1.22.2l-.34.09a7.72,7.72,0,0,1,.15,4.87h0a7.7,7.7,0,0,1-4.13-2.56l-.25.24a4.86,4.86,0,0,0-.79,1l.1.08a8.21,8.21,0,0,1,1.07,1.36,2.66,2.66,0,0,0,.87.83,3.2,3.2,0,0,0,1.48.36,8.61,8.61,0,0,1,1.89.2,4.33,4.33,0,0,1,.74.27,4.76,4.76,0,0,1,.44-1.7c.18-.41.4-.79.61-1.19a3.27,3.27,0,0,0,.34-.9.9.9,0,0,0,0-.23,2.65,2.65,0,0,0-.28-1.17,8.31,8.31,0,0,1-.64-1.61s0-.08,0-.12Zm2.92-4h0c3.31.47,2.06,2.63,0,0Zm-3.24,2.87h0l.28-.16v.43h-.43l.15-.27ZM716,93.32h0l0,.12a9,9,0,0,0-.25,1.71,2.59,2.59,0,0,1-.33,1.16,1.18,1.18,0,0,1-.13.18,3.19,3.19,0,0,1-.76.61c-.37.24-.76.47-1.12.73a4.86,4.86,0,0,0-1.23,1.25,4,4,0,0,0-.5-.6,8.7,8.7,0,0,0-1.53-1.12,3.11,3.11,0,0,1-1.11-1,2.48,2.48,0,0,1-.34-1.16,8.31,8.31,0,0,0-.25-1.71.56.56,0,0,0,0-.12,4.63,4.63,0,0,1,1.16-.44l.34-.09a7.79,7.79,0,0,0,2.3,4.29h0a7.72,7.72,0,0,0,2.29-4.29l.34.09a4.7,4.7,0,0,1,1.17.44Zm4.52-2h0c2.62,2.06.47,3.31,0,0Zm-4.24.87h.32c-.06.09-.14.23-.22.37l-.37-.21.27-.16Zm-9,.84h0l-.1.08a8.21,8.21,0,0,0-1.07,1.36,2.66,2.66,0,0,1-.87.83,1,1,0,0,1-.21.09,3.45,3.45,0,0,1-1,.16c-.44,0-.89,0-1.34.07a4.74,4.74,0,0,0-1.68.46,4.31,4.31,0,0,0-.14-.77,8.46,8.46,0,0,0-.77-1.74,3.22,3.22,0,0,1-.43-1.46,2.53,2.53,0,0,1,.29-1.17,8.31,8.31,0,0,0,.64-1.61s0-.08,0-.12a4.39,4.39,0,0,1,1.23.2l.34.09a7.73,7.73,0,0,0-.16,4.87h0a7.72,7.72,0,0,0,4.14-2.56l.25.24a5.24,5.24,0,0,1,.79,1Zm4.91.53h0c1.24,3.1-1.25,3.1,0,0Zm-4.1-1.37h0l.27.16-.38.21-.21-.37Zm-8.23-3.78h0a4.72,4.72,0,0,0-.2-1.23l-.09-.34a7.73,7.73,0,0,1-4.87.16v0a7.72,7.72,0,0,1,2.56-4.14l-.24-.25a5.59,5.59,0,0,0-1-.79l-.08.1A8.21,8.21,0,0,1,694.59,83a2.56,2.56,0,0,0-.83.87,3.2,3.2,0,0,0-.36,1.48,8.55,8.55,0,0,1-.2,1.89,4.33,4.33,0,0,1-.27.74,4.66,4.66,0,0,1,1.69.44c.41.18.8.4,1.2.61a3.65,3.65,0,0,0,.9.35l.23,0a2.53,2.53,0,0,0,1.17-.29,8.22,8.22,0,0,1,1.6-.64l.13,0Zm4,2.91h0c-.47,3.31-2.63,2.06,0,0ZM701,88.09h0l.16.27h-.43v-.43l.27.16Zm-5.23-7.39h0l-.12,0a7.76,7.76,0,0,0-1.71-.25,2.48,2.48,0,0,1-1.16-.34.83.83,0,0,1-.18-.13,3,3,0,0,1-.61-.76c-.25-.37-.47-.76-.73-1.12A5,5,0,0,0,690,76.84a4.77,4.77,0,0,0,.6-.51,9.84,9.84,0,0,0,1.12-1.53,3.19,3.19,0,0,1,1-1.11,2.47,2.47,0,0,1,1.16-.33,8.43,8.43,0,0,0,1.71-.26l.12,0a4.78,4.78,0,0,1,.44,1.16l.09.35A7.65,7.65,0,0,0,692,76.86v0a7.72,7.72,0,0,0,4.29,2.3l-.09.34a4.78,4.78,0,0,1-.44,1.16Zm2,4.52h0c-2.07,2.63-3.31.47,0,0ZM696.87,81h0v.32l-.38-.22c.09-.14.17-.28.22-.37l.16.27ZM696,72h0a5.17,5.17,0,0,0,1-.79l.24-.25a7.72,7.72,0,0,1-2.56-4.14v0a7.65,7.65,0,0,1,4.87.15l.09-.34a5.18,5.18,0,0,0,.2-1.23l-.13,0a8.22,8.22,0,0,1-1.6-.64A2.66,2.66,0,0,0,697,64.4a3.11,3.11,0,0,0-1.46.44,10,10,0,0,1-1.74.77,4.27,4.27,0,0,1-.77.13,4.74,4.74,0,0,1,.46,1.69c0,.44,0,.89.07,1.33a3.44,3.44,0,0,0,.15,1,1.36,1.36,0,0,0,.1.21,2.56,2.56,0,0,0,.83.87A8.21,8.21,0,0,1,696,71.87l.08.1Zm-.53,4.91h0c-3.1,1.25-3.1-1.25,0,0Zm1.37-4.1h0l-.16.27c-.05-.09-.13-.23-.22-.37l.38-.22v.32Zm3.78-8.23h0s0-.09,0-.12a8.31,8.31,0,0,0-.64-1.61,2.5,2.5,0,0,1-.29-1.17,1.5,1.5,0,0,1,0-.22,3.58,3.58,0,0,1,.35-.91c.21-.4.43-.78.61-1.19a5,5,0,0,0,.44-1.7,4.55,4.55,0,0,0,.73.27,8.61,8.61,0,0,0,1.89.2,3.21,3.21,0,0,1,1.49.36,2.5,2.5,0,0,1,.87.84,8.58,8.58,0,0,0,1.07,1.35l.1.08a5.24,5.24,0,0,1-.79,1l-.25.24a7.75,7.75,0,0,0-4.14-2.56h0a7.73,7.73,0,0,0,.16,4.87l-.34.1a4.77,4.77,0,0,1-1.23.19Zm-2.91,4h0c-3.31-.47-2.07-2.63,0,0ZM701,65.67h0l-.27.16V65.4h.43l-.16.27Zm2.87-3.23h0c-2.63-2.06-.47-3.31,0,0Zm4.24-.87h-.32l.21-.37.38.21-.27.16Zm4.1-1.37h0c-1.25-3.09,1.24-3.09,0,0Zm14.41-8.4h0L726.28,53a4.6,4.6,0,0,0-.08,2.52,9.79,9.79,0,0,0,.83,1.84,4.82,4.82,0,0,1,.63,2.22,4.09,4.09,0,0,1-.44,1.88c-.12.27-.25.52-.37.79l.79-.37a4.07,4.07,0,0,1,1.88-.45,3.49,3.49,0,0,1,.44,0,4.68,4.68,0,0,1,1.39.52c.45.23.89.48,1.35.69a4.17,4.17,0,0,0,3.37.13l1.13-.41-.85.84A4.71,4.71,0,0,0,735,65.36a10.38,10.38,0,0,0-.2,2,4.89,4.89,0,0,1-.56,2.24,4.31,4.31,0,0,1-1.32,1.4l-.71.5.86.07a4.32,4.32,0,0,1,1.85.55,3.07,3.07,0,0,1,.36.27,5.15,5.15,0,0,1,.94,1.14c.28.43.53.87.83,1.28a4.15,4.15,0,0,0,2.85,1.8l1.18.21,2.57-.66-1-.27A4,4,0,0,1,740.28,74c-.26-.42-.49-.87-.74-1.31a5.12,5.12,0,0,0-.82-1.17l-.31-.28a3.19,3.19,0,0,0-1.53-.63c-.24,0-.48-.07-.71-.12l.55-.46a3.17,3.17,0,0,0,1-1.31,5.15,5.15,0,0,0,.35-2.19,11.73,11.73,0,0,1,.07-2,4.26,4.26,0,0,1,1-2l.66-.79-2.58.66,1.9-1.86-1,.26a3.91,3.91,0,0,1-3-.45c-.44-.23-.86-.5-1.29-.76a5.64,5.64,0,0,0-1.3-.6,2.71,2.71,0,0,0-.41-.09,3.32,3.32,0,0,0-1.64.22l-.68.25c.08-.22.17-.44.26-.67a3.34,3.34,0,0,0,.21-1.65,5.18,5.18,0,0,0-.79-2.06,11.69,11.69,0,0,1-.93-1.74,4.34,4.34,0,0,1-.18-2.27l.17-1-1.9,1.86Zm8.22,9.36h0a.65.65,0,1,1-.92,0,.66.66,0,0,1,.92,0ZM728,54.37h0a.65.65,0,1,0,0,.92.66.66,0,0,0,0-.92Zm1,2.47h0a.63.63,0,0,1,0,.91.64.64,0,0,1-.91-.91.63.63,0,0,1,.91,0Zm3.31,3.3h0a.65.65,0,0,1,0,.91.66.66,0,0,1-.92,0,.65.65,0,0,1,.92-.91Zm7.29,14.44h0a.66.66,0,0,1-.46.8.66.66,0,0,1-.8-.46.65.65,0,0,1,1.26-.34Zm-2.49-9.27h0a.65.65,0,0,1-1.25.34.66.66,0,0,1,.46-.8.64.64,0,0,1,.79.46ZM736.81,68h0a.66.66,0,0,1-.46.8.65.65,0,0,1-.79-.46.63.63,0,0,1,.46-.79.64.64,0,0,1,.79.45ZM738,72.47h0a.66.66,0,0,1-.46.79.65.65,0,0,1-.79-.46.63.63,0,0,1,.45-.79.64.64,0,0,1,.8.46Zm3.08,4.36h0l2.57.71-1,.36a4.25,4.25,0,0,0-1.87,1.29,10.89,10.89,0,0,0-1,1.67,5.38,5.38,0,0,1-1.39,1.72,3.22,3.22,0,0,1-1.54.63l-.71.12c.18.16.37.3.56.46a3.29,3.29,0,0,1,1,1.32,3.56,3.56,0,0,1,.13.39,6.19,6.19,0,0,1,.13,1.43c0,.5,0,1,0,1.5a3.94,3.94,0,0,0,1.14,2.86l.71.72-2.56-.72-.92-.77a4.1,4.1,0,0,1-1.56-3c-.06-.5-.06-1-.08-1.52a5.2,5.2,0,0,0-.25-1.46,3,3,0,0,0-.18-.41,4.31,4.31,0,0,0-1.32-1.4l-.71-.5.86-.07a4.2,4.2,0,0,0,1.85-.56,4.71,4.71,0,0,0,1.6-1.66,9.54,9.54,0,0,1,1.18-1.63,4.65,4.65,0,0,1,2.22-1.2l1.16-.3Zm-4,11.79h0a.66.66,0,0,1-.8.46.64.64,0,0,1-.45-.79.63.63,0,0,1,.79-.46.65.65,0,0,1,.46.79Zm2.48-9.27h0a.65.65,0,0,0-1.25-.34.65.65,0,0,0,.46.79.64.64,0,0,0,.79-.45ZM738,81.46h0a.64.64,0,0,1-.79.46.65.65,0,0,1-.46-.79.65.65,0,0,1,.79-.46.65.65,0,0,1,.46.79ZM736.76,86h0a.64.64,0,0,1-.79.46.65.65,0,0,1-.46-.79.66.66,0,0,1,.79-.46.64.64,0,0,1,.46.79Zm.49,5.32h0l1.87,1.91-1-.18a4.22,4.22,0,0,0-2.26.19,12.63,12.63,0,0,0-1.74.92,5.18,5.18,0,0,1-2.06.79,3.34,3.34,0,0,1-1.65-.21c-.23-.08-.45-.18-.68-.25.08.22.17.44.26.67a3.34,3.34,0,0,1,.21,1.65,1.89,1.89,0,0,1-.08.4,6.1,6.1,0,0,1-.6,1.3c-.26.43-.53.85-.77,1.29a4,4,0,0,0-.44,3.06l.25,1-1.85-1.9.66,2.58-.79-.66a4.3,4.3,0,0,0-2-1,11.73,11.73,0,0,0-2-.07,5.31,5.31,0,0,1-2.19-.34,3.45,3.45,0,0,1-1.32-1l-.45-.56c-.05.23-.08.47-.12.71a3.31,3.31,0,0,1-.64,1.53,2.61,2.61,0,0,1-.27.31,5.56,5.56,0,0,1-1.18.83c-.43.24-.88.47-1.3.74a3.88,3.88,0,0,0-1.91,2.41l-.27,1-.66-2.58.21-1.18a4.15,4.15,0,0,1,1.8-2.85c.41-.3.85-.55,1.27-.83a4.74,4.74,0,0,0,1.15-.94,1.83,1.83,0,0,0,.26-.36,4,4,0,0,0,.55-1.85c0-.29,0-.58.08-.86.17.23.33.47.5.71a3.94,3.94,0,0,0,1.4,1.32,4.86,4.86,0,0,0,2.24.56,9.73,9.73,0,0,1,2,.21,4.53,4.53,0,0,1,2.14,1.32l.85.85-.41-1.12a4.12,4.12,0,0,1,.13-3.37c.2-.47.46-.91.69-1.36a4.68,4.68,0,0,0,.52-1.39,2.12,2.12,0,0,0,0-.44,4.09,4.09,0,0,0-.44-1.88c-.12-.27-.25-.52-.37-.79l.79.37a4.07,4.07,0,0,0,1.88.45,5,5,0,0,0,2.22-.64,9.48,9.48,0,0,1,1.84-.82,4.56,4.56,0,0,1,2.51.07l1.16.31Zm-9.35,8.22h0a.66.66,0,0,1-.92,0,.65.65,0,1,1,.92,0Zm6.79-6.79h0a.65.65,0,0,1-.92-.91.66.66,0,0,1,.92,0,.65.65,0,0,1,0,.91Zm-2.47,1h0a.65.65,0,1,1,0-.92.66.66,0,0,1,0,.92Zm-3.3,3.3h0a.65.65,0,1,1,0-.92.66.66,0,0,1,0,.92Zm-14.44,7.29h0a.65.65,0,1,0-.8-.46.65.65,0,0,0,.8.46Zm9.27-2.48h0a.65.65,0,0,1-.34-1.26.65.65,0,0,1,.34,1.26Zm-2.65-.35h0a.65.65,0,1,1,.46-.79.65.65,0,0,1-.46.79Zm-4.51,1.21h0a.65.65,0,1,1,.46-.79.65.65,0,0,1-.46.79Zm-4.36,3.08h0l-.71,2.57-.36-1a4.22,4.22,0,0,0-1.29-1.86,10.94,10.94,0,0,0-1.67-1.05,5.25,5.25,0,0,1-1.72-1.39,3.35,3.35,0,0,1-.64-1.53c0-.25-.07-.48-.12-.71l-.45.55a3.27,3.27,0,0,1-1.32,1,2.23,2.23,0,0,1-.39.13,5.65,5.65,0,0,1-1.43.13c-.5,0-1,0-1.5,0a3.92,3.92,0,0,0-2.87,1.13l-.71.71.71-2.55.77-.93a4.18,4.18,0,0,1,3-1.56c.5-.06,1-.06,1.52-.08a5.57,5.57,0,0,0,1.46-.24,2.46,2.46,0,0,0,.4-.19,4.05,4.05,0,0,0,1.41-1.32c.17-.24.33-.48.5-.71,0,.28,0,.57.07.86a4.28,4.28,0,0,0,.55,1.85,5,5,0,0,0,1.67,1.61,9.89,9.89,0,0,1,1.63,1.17,4.65,4.65,0,0,1,1.2,2.22l.3,1.16Zm-11.79-4h0a.65.65,0,1,1,.79-.46.65.65,0,0,1-.79.46Zm9.27,2.48h0a.64.64,0,0,0,.79-.45.65.65,0,0,0-.46-.8.66.66,0,0,0-.79.46.65.65,0,0,0,.46.79Zm-2.12-1.62h0a.65.65,0,0,1-.46-.79.66.66,0,0,1,.8-.46.65.65,0,0,1,.45.8.63.63,0,0,1-.79.45Zm-4.51-1.21h0a.63.63,0,0,1-.45-.79.64.64,0,1,1,1.24.34.63.63,0,0,1-.79.45Zm-5.32.5h0l-1.9,1.86.18-1a4.35,4.35,0,0,0-.19-2.27,11.69,11.69,0,0,0-.93-1.74,5.43,5.43,0,0,1-.79-2.06,3.23,3.23,0,0,1,.22-1.65c.08-.23.17-.45.25-.67l-.67.25a3.34,3.34,0,0,1-1.65.22,2.88,2.88,0,0,1-.4-.09,5.71,5.71,0,0,1-1.31-.6c-.43-.26-.85-.53-1.28-.76a3.94,3.94,0,0,0-3.06-.45l-1,.26,1.9-1.86-2.58.66.65-.79a4.18,4.18,0,0,0,1-2.05,10.76,10.76,0,0,0,.06-2,5.48,5.48,0,0,1,.35-2.19,3.34,3.34,0,0,1,1-1.31l.56-.46-.71-.12a3.33,3.33,0,0,1-1.54-.63l-.31-.28a5.63,5.63,0,0,1-.82-1.18c-.24-.43-.48-.87-.74-1.3a3.94,3.94,0,0,0-2.41-1.91l-1-.26,2.58-.66,1.18.2a4.19,4.19,0,0,1,2.85,1.8c.3.41.55.85.82,1.28a5.44,5.44,0,0,0,.94,1.14,2.26,2.26,0,0,0,.37.26,4.16,4.16,0,0,0,1.84.56l.87.07-.71.5a4.11,4.11,0,0,0-1.32,1.4,4.77,4.77,0,0,0-.56,2.24,9.66,9.66,0,0,1-.21,2A4.69,4.69,0,0,1,688,90.55l-.85.84,1.12-.41a4.16,4.16,0,0,1,3.37.13c.47.21.9.46,1.36.69a4.68,4.68,0,0,0,1.39.52,2.12,2.12,0,0,0,.44.05,4.06,4.06,0,0,0,1.87-.45l.79-.37c-.11.27-.24.52-.37.79a4.22,4.22,0,0,0-.44,1.88,5,5,0,0,0,.64,2.22,10.43,10.43,0,0,1,.82,1.84,4.69,4.69,0,0,1-.07,2.52l-.32,1.16Zm-8.22-9.36h0a.65.65,0,1,1,.92,0,.66.66,0,0,1-.92,0Zm6.79,6.79h0a.65.65,0,1,1,.92,0,.66.66,0,0,1-.92,0Zm-1-2.47h0a.64.64,0,0,1,.91-.91.64.64,0,1,1-.91.91ZM692,93.63h0a.66.66,0,0,1,0-.92.65.65,0,1,1,0,.92Zm-7.29-14.45h0a.65.65,0,1,0,.46-.8.65.65,0,0,0-.46.8Zm2.49,9.27h0a.63.63,0,0,1,.45-.79.65.65,0,0,1,.8.45.66.66,0,0,1-.46.8.64.64,0,0,1-.79-.46Zm.34-2.64h0a.65.65,0,1,1,1.25-.34.65.65,0,0,1-1.25.34Zm-1.21-4.51h0a.65.65,0,1,1,1.25-.34.65.65,0,0,1-1.25.34Zm-3.08-4.36h0l-2.57-.72,1-.36a4.2,4.2,0,0,0,1.87-1.29,11.78,11.78,0,0,0,1.05-1.67A5.25,5.25,0,0,1,686,71.18a3.19,3.19,0,0,1,1.53-.63l.71-.12-.55-.46a3.31,3.31,0,0,1-1-1.32,3.56,3.56,0,0,1-.13-.39,5.64,5.64,0,0,1-.12-1.43c0-.5,0-1,0-1.5a4,4,0,0,0-1.13-2.86l-.72-.72,2.56.71.92.78a4.11,4.11,0,0,1,1.57,3c0,.5,0,1,.08,1.52a4.85,4.85,0,0,0,.24,1.46,2.17,2.17,0,0,0,.19.41,4.11,4.11,0,0,0,1.32,1.4l.71.5-.87.07a4.28,4.28,0,0,0-1.84.55,5,5,0,0,0-1.61,1.67,9,9,0,0,1-1.18,1.63,4.6,4.6,0,0,1-2.22,1.2l-1.15.31Zm4-11.8h0a.65.65,0,1,1,1.25.33.65.65,0,1,1-1.25-.33Zm-2.49,9.27h0a.65.65,0,0,0,.46.79.63.63,0,0,0,.79-.45.65.65,0,0,0-.45-.8.66.66,0,0,0-.8.46Zm1.62-2.12h0a.65.65,0,0,1,.8-.45.63.63,0,0,1,.45.79.65.65,0,0,1-.79.46.66.66,0,0,1-.46-.8Zm1.21-4.5h0a.66.66,0,0,1,.8-.46.63.63,0,0,1,.45.79.65.65,0,0,1-1.25-.33Zm-.49-5.33h0l1.16.32a4.69,4.69,0,0,0,2.52.08,10.48,10.48,0,0,0,1.84-.83,5,5,0,0,1,2.22-.64,4.06,4.06,0,0,1,1.87.45l.79.36c-.11-.26-.24-.51-.37-.78a4.22,4.22,0,0,1-.44-1.88,3.27,3.27,0,0,1,0-.44,5.3,5.3,0,0,1,.52-1.39c.24-.45.49-.89.7-1.35a4.17,4.17,0,0,0,.13-3.37l-.41-1.13.84.85A4.79,4.79,0,0,0,700.66,54a10.28,10.28,0,0,0,2,.2,4.9,4.9,0,0,1,2.25.56,4.21,4.21,0,0,1,1.4,1.32c.17.24.33.48.5.71,0-.28,0-.57.07-.86a4.28,4.28,0,0,1,.55-1.85,3.07,3.07,0,0,1,.27-.36,4.69,4.69,0,0,1,1.14-.94c.43-.28.87-.53,1.28-.83a4.17,4.17,0,0,0,1.8-2.85l.21-1.18-.67-2.58-.26,1a3.9,3.9,0,0,1-1.92,2.41c-.42.27-.86.5-1.3.74a5.82,5.82,0,0,0-1.18.83,4,4,0,0,0-.27.31,3.19,3.19,0,0,0-.63,1.53c0,.24-.08.48-.12.71-.16-.18-.3-.37-.46-.56a3.38,3.38,0,0,0-1.32-1,5.23,5.23,0,0,0-2.18-.34,11.73,11.73,0,0,1-2-.07,4.26,4.26,0,0,1-2.05-1l-.79-.66.66,2.58L695.81,50l.26,1a3.91,3.91,0,0,1-.45,3.05c-.23.43-.51.86-.76,1.28a5.75,5.75,0,0,0-.61,1.31c0,.13-.06.27-.08.4a3.23,3.23,0,0,0,.22,1.65c.08.23.17.45.25.67l-.67-.25a3.35,3.35,0,0,0-1.65-.21,5.22,5.22,0,0,0-2.07.79,10.73,10.73,0,0,1-1.74.92,4.21,4.21,0,0,1-2.26.19l-1-.18,1.86,1.9Zm9.36-8.21h0a.65.65,0,0,1,.91,0,.64.64,0,0,1-.91.91.65.65,0,0,1,0-.91ZM689.67,61h0a.65.65,0,0,1,.92.91.66.66,0,0,1-.92,0,.65.65,0,0,1,0-.91Zm2.46-1h0a.65.65,0,1,1,0,.92.66.66,0,0,1,0-.92Zm3.31-3.3h0a.65.65,0,0,1,.91,0,.66.66,0,0,1,0,.92.65.65,0,1,1-.91-.92Zm14.44-7.29h0a.65.65,0,0,1,.33,1.25.65.65,0,0,1-.33-1.25Zm-9.27,2.49h0a.64.64,0,0,1,.79.45.65.65,0,1,1-1.25.34.64.64,0,0,1,.46-.79Zm2.64.34h0a.65.65,0,0,1,.34,1.25.65.65,0,1,1-.34-1.25ZM707.76,51h0a.65.65,0,0,1,.79.46.63.63,0,0,1-.45.79.65.65,0,1,1-.34-1.25Zm16.16.91h0a.65.65,0,0,0-.34,1.25.65.65,0,1,0,.34-1.25Zm-9.28-2.48h0a.64.64,0,0,0-.79.45.66.66,0,0,0,.46.8.65.65,0,1,0,.33-1.25Zm2.12,1.62h0a.65.65,0,1,0,.46.79.64.64,0,0,0-.46-.79Zm4.51,1.21h0a.64.64,0,0,0-.79.45.65.65,0,1,0,1.25.34A.64.64,0,0,0,721.27,52.3Z"/><path class="cls-1" d="M172.37,48.3l.71-2.53.35.95a4.12,4.12,0,0,0,1.27,1.84,10,10,0,0,0,1.66,1A5.25,5.25,0,0,1,178.05,51a3.2,3.2,0,0,1,.63,1.52c0,.24.08.47.12.7l.45-.55a3.27,3.27,0,0,1,1.3-1l.39-.13a5.53,5.53,0,0,1,1.42-.12c.49,0,1,0,1.47,0a3.92,3.92,0,0,0,2.84-1.12l.7-.71-.7,2.53-.76.91A4.1,4.1,0,0,1,183,54.56c-.5,0-1,0-1.5.08a4.74,4.74,0,0,0-1.45.24,2.87,2.87,0,0,0-.4.18,4.06,4.06,0,0,0-1.39,1.31c-.17.24-.32.47-.49.7,0-.28,0-.56-.07-.85a4.23,4.23,0,0,0-.55-1.83,4.89,4.89,0,0,0-1.64-1.59,8.85,8.85,0,0,1-1.62-1.16,4.6,4.6,0,0,1-1.18-2.19l-.3-1.15ZM162.2,88.45Zm-4.91-14.64Zm.5-1.84h0l9.73-9.73h0L157.79,72Zm11.56-10.22h0l13.3,3.56h0l-13.3-3.56Zm8,.49ZM184,66.66Zm3.56,7.15Zm-.49,8Zm-4.41,6.66Zm-10-35.31h0l-.25-.94-.17,1a3.36,3.36,0,0,1-1.47,2.32c-.33.25-.69.45-1,.67a4.29,4.29,0,0,0-.93.77,2.73,2.73,0,0,0-.21.3,3.32,3.32,0,0,0-.45,1.5,9,9,0,0,1-.18,1.38,8.27,8.27,0,0,1-.85-1.1,3.37,3.37,0,0,0-1.14-1.08,4,4,0,0,0-1.83-.46,7.45,7.45,0,0,1-1.63-.16,3.77,3.77,0,0,1-1.75-1.08l-.69-.69.34.92a3.36,3.36,0,0,1-.11,2.74c-.17.38-.38.73-.57,1.1a4.16,4.16,0,0,0-.42,1.13,2.28,2.28,0,0,0,0,.36,3.35,3.35,0,0,0,.36,1.53,8.53,8.53,0,0,1,.53,1.29,8.42,8.42,0,0,1-1.28-.53,3.29,3.29,0,0,0-1.53-.37,4,4,0,0,0-1.81.52,7.73,7.73,0,0,1-1.5.67,3.86,3.86,0,0,1-2.05,0l-.94-.26.75.62a3.42,3.42,0,0,1,1.27,2.44c0,.41,0,.82.07,1.23a3.78,3.78,0,0,0,.2,1.2,2.33,2.33,0,0,0,.14.33,3.47,3.47,0,0,0,1.08,1.14,7.59,7.59,0,0,1,1.11.85,8,8,0,0,1-1.38.17,3.5,3.5,0,0,0-1.51.46,3.85,3.85,0,0,0-1.31,1.35,7,7,0,0,1-1,1.33,3.8,3.8,0,0,1-1.8,1l-.95.25,1,.16A3.41,3.41,0,0,1,151,78.56c.24.33.44.69.67,1a4.06,4.06,0,0,0,.77.93,1.94,1.94,0,0,0,.29.21,3.36,3.36,0,0,0,1.51.45,8,8,0,0,1,1.38.19,8.29,8.29,0,0,1-1.11.84,3.47,3.47,0,0,0-1.08,1.14,4.06,4.06,0,0,0-.45,1.83,8.15,8.15,0,0,1-.17,1.64,3.74,3.74,0,0,1-1.08,1.74l-.69.69.92-.33a3.4,3.4,0,0,1,2.74.1c.38.17.74.38,1.1.57A4.23,4.23,0,0,0,157,90a1.47,1.47,0,0,0,.36,0,3.41,3.41,0,0,0,1.53-.36,7.55,7.55,0,0,1,1.28-.54,7.61,7.61,0,0,1-.53,1.29,3.33,3.33,0,0,0-.36,1.52,4,4,0,0,0,.51,1.82,7.69,7.69,0,0,1,.68,1.49,3.8,3.8,0,0,1-.06,2.06l-.26.94.63-.75a3.38,3.38,0,0,1,2.43-1.28c.41,0,.82,0,1.24-.06a4,4,0,0,0,1.19-.2,2.41,2.41,0,0,0,.33-.15,3.37,3.37,0,0,0,1.14-1.08,8.27,8.27,0,0,1,.85-1.1,9.14,9.14,0,0,1,.18,1.38,3.32,3.32,0,0,0,.45,1.5,4,4,0,0,0,1.35,1.31,8,8,0,0,1,1.34,1,3.9,3.9,0,0,1,1,1.81l.25.95.17-1a3.35,3.35,0,0,1,1.46-2.32c.34-.24.69-.45,1-.67a4.34,4.34,0,0,0,.94-.77,2,2,0,0,0,.21-.3,3.32,3.32,0,0,0,.45-1.5,8,8,0,0,1,.18-1.38,8.27,8.27,0,0,1,.85,1.1,3.37,3.37,0,0,0,1.14,1.08,4,4,0,0,0,1.83.46,8.12,8.12,0,0,1,1.63.16,3.77,3.77,0,0,1,1.75,1.08l.68.69-.33-.91a3.38,3.38,0,0,1,.11-2.75c.17-.38.37-.73.56-1.1a4.19,4.19,0,0,0,.43-1.13,2.22,2.22,0,0,0,0-.37,3.33,3.33,0,0,0-.36-1.52,7.61,7.61,0,0,1-.53-1.29,7.55,7.55,0,0,1,1.28.54,3.54,3.54,0,0,0,1.53.36,4,4,0,0,0,1.81-.52,7.47,7.47,0,0,1,1.5-.67,3.76,3.76,0,0,1,2,.06l.94.25-.75-.62a3.43,3.43,0,0,1-1.28-2.43c0-.42,0-.83-.06-1.24a4,4,0,0,0-.2-1.19,2.07,2.07,0,0,0-.15-.34,3.34,3.34,0,0,0-1.07-1.14,8.29,8.29,0,0,1-1.11-.84,8,8,0,0,1,1.38-.19,3.32,3.32,0,0,0,1.5-.45,3.85,3.85,0,0,0,1.31-1.35,8.38,8.38,0,0,1,1-1.33,3.75,3.75,0,0,1,1.8-1l1-.24-1-.17a3.42,3.42,0,0,1-2.32-1.47c-.24-.33-.45-.69-.67-1a4.06,4.06,0,0,0-.77-.93,2.32,2.32,0,0,0-.3-.22,3.58,3.58,0,0,0-1.5-.45,7.15,7.15,0,0,1-1.38-.18,8.29,8.29,0,0,1,1.11-.84,3.34,3.34,0,0,0,1.07-1.14,3.91,3.91,0,0,0,.46-1.83,8.29,8.29,0,0,1,.16-1.64,3.91,3.91,0,0,1,1.08-1.74l.7-.69-.92.34a3.4,3.4,0,0,1-2.74-.11c-.38-.17-.74-.38-1.11-.57a4.16,4.16,0,0,0-1.13-.42l-.36,0a3.29,3.29,0,0,0-1.53.37,8.86,8.86,0,0,1-1.28.53,7.61,7.61,0,0,1,.53-1.29,3.35,3.35,0,0,0,.36-1.53,4,4,0,0,0-.52-1.81,8,8,0,0,1-.67-1.49,3.8,3.8,0,0,1,.06-2.06l.26-.94-.63.75a3.4,3.4,0,0,1-2.43,1.28c-.41,0-.83,0-1.24.06a4,4,0,0,0-1.19.2,1.66,1.66,0,0,0-.33.15A3.37,3.37,0,0,0,177.77,59a8.27,8.27,0,0,1-.85,1.1,7,7,0,0,1-.18-1.38,3.32,3.32,0,0,0-.45-1.5,4,4,0,0,0-1.36-1.31,8.32,8.32,0,0,1-1.33-1,3.73,3.73,0,0,1-1-1.81Zm4.65,7.78h0a4.77,4.77,0,0,0,.77,1l.25.24a7.66,7.66,0,0,1,4.09-2.54l0,0a7.67,7.67,0,0,1-.15,4.81l.33.09a5.1,5.1,0,0,0,1.22.2.51.51,0,0,1,0-.13,7.44,7.44,0,0,1,.63-1.58,2.61,2.61,0,0,0,.28-1.16,3.24,3.24,0,0,0-.42-1.45,8.77,8.77,0,0,1-.77-1.71,4.17,4.17,0,0,1-.13-.76,5.14,5.14,0,0,1-1.67.46c-.44.05-.88.05-1.32.07a3.41,3.41,0,0,0-.95.14l-.2.1a2.69,2.69,0,0,0-.86.82,7.19,7.19,0,0,1-1.06,1.34.34.34,0,0,1-.09.08Zm-.93,1.32H168.5l-6.79,3.93L157.79,73V80.8l3.92,6.8,6.79,3.92h7.85l6.79-3.92,3.92-6.8V73l-3.92-6.79-6.79-3.93Zm8.25,3.25h0a5,5,0,0,0,.2,1.21l.09.34a7.68,7.68,0,0,1,4.81-.16l0,0A7.62,7.62,0,0,1,187.18,71l.25.25a4.7,4.7,0,0,0,.95.78l.08-.1a8.44,8.44,0,0,1,1.34-1.06,2.44,2.44,0,0,0,.83-.86,3.21,3.21,0,0,0,.35-1.46,8.37,8.37,0,0,1,.2-1.87,4.2,4.2,0,0,1,.26-.73,4.8,4.8,0,0,1-1.67-.43c-.41-.18-.79-.4-1.18-.6a3.65,3.65,0,0,0-.9-.35l-.22,0a2.42,2.42,0,0,0-1.15.29,8.77,8.77,0,0,1-1.59.63l-.13,0Zm-9.89-4.33h0l.34-.09a5.13,5.13,0,0,0,1.15-.43l0-.12a7.5,7.5,0,0,1-.25-1.69,2.55,2.55,0,0,0-.33-1.15,3.22,3.22,0,0,0-1.1-1,8.58,8.58,0,0,1-1.51-1.1,4,4,0,0,1-.5-.6,4.9,4.9,0,0,1-1.21,1.24c-.36.26-.74.48-1.11.72a3.14,3.14,0,0,0-.75.6l-.13.18a2.55,2.55,0,0,0-.33,1.15,8.12,8.12,0,0,1-.25,1.69l0,.12a5.13,5.13,0,0,0,1.15.43l.33.09a7.65,7.65,0,0,1,2.28-4.24h0a7.64,7.64,0,0,1,2.27,4.24Zm5.95,1.45h0c.47-3.27,2.6-2,0,0Zm-4.08-1.23h0l.21.37h-.31l-.27-.15.37-.22Zm6.92,4.42h0l-.16-.26h.43V66l-.27-.16Zm5.17,7.3h0l.12.05a8.12,8.12,0,0,0,1.69.25,2.43,2.43,0,0,1,1.14.33.59.59,0,0,1,.18.13,3.34,3.34,0,0,1,.61.74c.24.37.46.75.72,1.11a4.55,4.55,0,0,0,1.23,1.21,4,4,0,0,0-.59.5,8.57,8.57,0,0,0-1.11,1.52,3.1,3.1,0,0,1-1,1.09,2.43,2.43,0,0,1-1.14.33,8.12,8.12,0,0,0-1.69.25l-.12,0a5.16,5.16,0,0,1-.44-1.15l-.09-.34a7.64,7.64,0,0,0,4.25-2.27v0a7.64,7.64,0,0,0-4.25-2.27l.09-.33a4.63,4.63,0,0,1,.44-1.16Zm-2-4.46h0c2-2.6,3.27-.46,0,0Zm.86,4.19h0v-.31c.09,0,.23.12.37.21l-.21.37-.16-.27Zm.83,8.9h0a4.7,4.7,0,0,0-.95.78l-.25.25a7.62,7.62,0,0,1,2.54,4.09l0,0a7.68,7.68,0,0,1-4.81-.16l-.09.34a5,5,0,0,0-.2,1.21l.13,0a8.13,8.13,0,0,1,1.59.64,2.54,2.54,0,0,0,1.15.28,3.22,3.22,0,0,0,1.45-.43,8.73,8.73,0,0,1,1.71-.76,5.19,5.19,0,0,1,.77-.14,4.58,4.58,0,0,1-.46-1.66c-.05-.44-.05-.88-.07-1.32a3.84,3.84,0,0,0-.15-1l-.09-.2a2.53,2.53,0,0,0-.83-.86,8.44,8.44,0,0,1-1.34-1.06l-.08-.1Zm.52-4.85h0c3.06-1.23,3.06,1.23,0,0Zm-1.35,4.05h0l.16-.26.21.36c-.14.09-.28.16-.37.21v-.31Zm-3.73,8.13h0a4.64,4.64,0,0,0-1.22.2l-.33.09a7.67,7.67,0,0,1,.15,4.81l0,0a7.66,7.66,0,0,1-4.09-2.54l-.25.24a5.07,5.07,0,0,0-.77,1,.34.34,0,0,1,.09.08,7.19,7.19,0,0,1,1.06,1.34,2.59,2.59,0,0,0,.86.82,3,3,0,0,0,1.47.35,9.9,9.9,0,0,1,1.87.2,4.44,4.44,0,0,1,.72.27,4.77,4.77,0,0,1,.44-1.67c.18-.41.39-.79.6-1.18a3.27,3.27,0,0,0,.34-.9,1.5,1.5,0,0,0,0-.22,2.61,2.61,0,0,0-.28-1.16,7.32,7.32,0,0,1-.63-1.59.37.37,0,0,1,0-.12Zm2.87-3.94h0c3.27.46,2,2.6,0,0ZM183.5,88h0l.27-.16v.43h-.43l.16-.26Zm-7.3,5.17h0a.76.76,0,0,0,0,.11,7.5,7.5,0,0,0-.25,1.69,2.55,2.55,0,0,1-.33,1.15l-.13.18a3.35,3.35,0,0,1-.75.6c-.37.24-.75.46-1.11.72a4.9,4.9,0,0,0-1.21,1.24,4.68,4.68,0,0,0-.5-.6,8.58,8.58,0,0,0-1.51-1.1,3.22,3.22,0,0,1-1.1-1,2.55,2.55,0,0,1-.33-1.15,8.12,8.12,0,0,0-.25-1.69.76.76,0,0,0,0-.11,4.71,4.71,0,0,1,1.15-.44l.34-.09a7.58,7.58,0,0,0,2.27,4.24h0a7.64,7.64,0,0,0,2.27-4.24l.34.09a4.71,4.71,0,0,1,1.15.44Zm4.46-2h0c2.6,2,.47,3.27,0,0Zm-4.18.86h.31l-.21.37-.37-.21.27-.16Zm-8.91.83h0a.39.39,0,0,0-.1.08,8.12,8.12,0,0,0-1.06,1.34,2.41,2.41,0,0,1-.86.82.72.72,0,0,1-.2.09,3,3,0,0,1-.95.15c-.44,0-.88,0-1.32.07a4.79,4.79,0,0,0-1.66.47,4.16,4.16,0,0,0-.14-.77,8.5,8.5,0,0,0-.76-1.72,3.18,3.18,0,0,1-.43-1.44,2.62,2.62,0,0,1,.29-1.16,8,8,0,0,0,.63-1.58.51.51,0,0,0,0-.13,4.64,4.64,0,0,1,1.22.2l.33.09a7.6,7.6,0,0,0-.15,4.81l0,0a7.6,7.6,0,0,0,4.08-2.54l.25.24a4.76,4.76,0,0,1,.78,1Zm4.85.52h0c1.23,3.06-1.23,3.06,0,0Zm-4-1.35h0l.27.16-.37.21-.21-.37Zm-8.13-3.74h0a5,5,0,0,0-.19-1.21l-.1-.34a7.68,7.68,0,0,1-4.81.16v0a7.66,7.66,0,0,1,2.53-4.09l-.24-.25a4.7,4.7,0,0,0-.95-.78l-.08.1a8.44,8.44,0,0,1-1.34,1.06,2.53,2.53,0,0,0-.83.86,3.21,3.21,0,0,0-.35,1.46,8.37,8.37,0,0,1-.2,1.87,5.23,5.23,0,0,1-.26.73,4.8,4.8,0,0,1,1.67.43c.4.18.78.4,1.18.6a3.12,3.12,0,0,0,.89.35l.22,0a2.58,2.58,0,0,0,1.16-.28,8.13,8.13,0,0,1,1.59-.64l.12,0Zm3.94,2.88h0c-.46,3.27-2.59,2,0,0ZM161.35,88h0l.15.27c-.1,0-.25,0-.42,0V87.8l.27.16Zm-5.17-7.3h0l-.12,0a8.84,8.84,0,0,0-1.69-.25,2.47,2.47,0,0,1-1.15-.33L153,79.9a3.3,3.3,0,0,1-.6-.74c-.24-.38-.46-.75-.72-1.11a4.7,4.7,0,0,0-1.23-1.21,4,4,0,0,0,.59-.5,9.1,9.1,0,0,0,1.11-1.52,3.16,3.16,0,0,1,1-1.09,2.59,2.59,0,0,1,1.15-.33,8.12,8.12,0,0,0,1.69-.25l.12-.05a5.05,5.05,0,0,1,.44,1.16l.08.33a7.64,7.64,0,0,0-4.24,2.27v0a7.64,7.64,0,0,0,4.24,2.27l-.08.34a5.16,5.16,0,0,1-.44,1.15Zm2,4.46h0c-2,2.6-3.26.46,0,0Zm-.86-4.19h0v.32l-.36-.22.21-.36.15.26Zm-.82-8.9h0a4.7,4.7,0,0,0,.95-.78l.24-.25a7.66,7.66,0,0,1-2.53-4.09v0A7.68,7.68,0,0,1,160,67l.1-.34a5,5,0,0,0,.19-1.21l-.12,0a8.77,8.77,0,0,1-1.59-.63,2.49,2.49,0,0,0-1.16-.29,3.18,3.18,0,0,0-1.44.43,8.82,8.82,0,0,1-1.72.76,4,4,0,0,1-.76.13,4.69,4.69,0,0,1,.46,1.67c.05.44.05.88.07,1.32a3.43,3.43,0,0,0,.15,1,.72.72,0,0,0,.09.2,2.44,2.44,0,0,0,.83.86,9,9,0,0,1,1.34,1.06l.08.1ZM156,76.88h0c-3.07,1.23-3.07-1.23,0,0Zm1.34-4h0l-.15.27c0-.09-.13-.23-.22-.37l.37-.21v.31ZM161,64.7h0a5.1,5.1,0,0,0,1.22-.2l.33-.09a7.6,7.6,0,0,1-.15-4.81l0,0a7.6,7.6,0,0,1,4.08,2.54l.25-.24a4.5,4.5,0,0,0,.78-1,.39.39,0,0,1-.1-.08,8.12,8.12,0,0,1-1.06-1.34,2.5,2.5,0,0,0-.86-.82,3.08,3.08,0,0,0-1.46-.35,9.9,9.9,0,0,1-1.87-.2,4.55,4.55,0,0,1-.73-.27,4.69,4.69,0,0,1-.43,1.67c-.18.41-.4.79-.6,1.18a3.27,3.27,0,0,0-.34.9,1.66,1.66,0,0,0,0,.22,2.62,2.62,0,0,0,.29,1.16,8.68,8.68,0,0,1,.63,1.58.51.51,0,0,1,0,.13Zm-2.88,3.94h0c-3.26-.46-2-2.6,0,0Zm3.2-2.84h0l-.27.16v-.43h.42l-.15.26Zm2.83-3.19h0c-2.59-2-.46-3.27,0,0Zm4.19-.86h-.31l.21-.37.37.22-.27.15Zm4-1.35h0c-1.23-3.06,1.23-3.06,0,0Zm14.25-8.3h0l-.32,1.15a4.55,4.55,0,0,0-.07,2.48,9.3,9.3,0,0,0,.82,1.82,5,5,0,0,1,.63,2.2,4.1,4.1,0,0,1-.44,1.85c-.12.27-.25.52-.37.78l.78-.36a4,4,0,0,1,1.85-.44,3.13,3.13,0,0,1,.44,0,5.21,5.21,0,0,1,1.38.51c.44.23.88.48,1.34.69A4.13,4.13,0,0,0,196,63l1.12-.4-.85.83A4.59,4.59,0,0,0,195,65.5a9.37,9.37,0,0,0-.2,2,4.81,4.81,0,0,1-.56,2.22,4.09,4.09,0,0,1-1.3,1.38c-.24.17-.48.32-.71.49l.86.08a4,4,0,0,1,1.82.54,3.32,3.32,0,0,1,.36.26,4.79,4.79,0,0,1,.93,1.13c.27.42.52.86.82,1.26a4.1,4.1,0,0,0,2.82,1.78l1.16.21,2.55-.66-1-.26A3.85,3.85,0,0,1,200.2,74c-.26-.41-.49-.86-.73-1.29a6.05,6.05,0,0,0-.82-1.16,3.65,3.65,0,0,0-.3-.27,3.3,3.3,0,0,0-1.52-.63l-.7-.11c.18-.16.36-.3.55-.45a3.23,3.23,0,0,0,1-1.31,5.12,5.12,0,0,0,.34-2.16,11.37,11.37,0,0,1,.07-1.94,4.13,4.13,0,0,1,1-2l.65-.78-2.55.66L199,60.71l-1,.25a3.87,3.87,0,0,1-3-.44c-.43-.23-.84-.5-1.27-.75a5.39,5.39,0,0,0-1.29-.6,1.77,1.77,0,0,0-.4-.08,3.23,3.23,0,0,0-1.62.21l-.67.25.25-.66a3.27,3.27,0,0,0,.21-1.63,5.17,5.17,0,0,0-.78-2,10.91,10.91,0,0,1-.91-1.72,4.13,4.13,0,0,1-.18-2.24l.17-1-1.88,1.84Zm8.12,9.25h0a.63.63,0,0,1,0,.9.65.65,0,0,1-.91,0,.63.63,0,0,1,0-.9.65.65,0,0,1,.91,0Zm-6.71-6.71h0a.65.65,0,0,0-.91,0,.64.64,0,0,0,.91.91.65.65,0,0,0,0-.91Zm1,2.43h0a.65.65,0,0,1,0,.91.63.63,0,0,1-.9,0,.65.65,0,0,1,0-.91.65.65,0,0,1,.9,0Zm3.26,3.27h0a.64.64,0,1,1-.9,0,.63.63,0,0,1,.9,0Zm7.21,14.27h0a.64.64,0,1,1-.79-.45.65.65,0,0,1,.79.45Zm-2.46-9.16h0a.64.64,0,1,1-.78-.45.64.64,0,0,1,.78.45Zm-.34,2.61h0a.64.64,0,1,1-1.23.33.64.64,0,1,1,1.23-.33Zm1.2,4.46h0a.64.64,0,0,1-1.24.33.64.64,0,1,1,1.24-.33Zm3,4.31h0l2.54.7-.95.35a4.2,4.2,0,0,0-1.85,1.28,12,12,0,0,0-1,1.65,5.14,5.14,0,0,1-1.38,1.7,3.12,3.12,0,0,1-1.51.63l-.71.12c.18.15.37.29.55.45a3.27,3.27,0,0,1,1,1.3,2.23,2.23,0,0,1,.13.39,5.49,5.49,0,0,1,.13,1.41c0,.5,0,1,0,1.48A3.86,3.86,0,0,0,199,91.12l.7.71-2.53-.71-.91-.76a4.08,4.08,0,0,1-1.55-3c-.05-.5-.05-1-.07-1.49a5.43,5.43,0,0,0-.24-1.45,3,3,0,0,0-.19-.41,4.09,4.09,0,0,0-1.3-1.38l-.71-.49.86-.08a4,4,0,0,0,1.82-.54,4.74,4.74,0,0,0,1.59-1.65,9.73,9.73,0,0,1,1.17-1.61,4.48,4.48,0,0,1,2.19-1.18l1.14-.3Zm-3.94,11.65h0a.65.65,0,0,1-.79.45.64.64,0,0,1-.45-.78.64.64,0,0,1,1.24.33Zm2.45-9.16h0a.64.64,0,0,0-.45-.78.64.64,0,1,0-.33,1.23.64.64,0,0,0,.78-.45Zm-1.6,2.09h0a.64.64,0,0,1-.78.45.63.63,0,0,1-.45-.78.64.64,0,0,1,1.23.33Zm-1.19,4.46h0a.64.64,0,1,1-.45-.79.65.65,0,0,1,.45.79Zm.48,5.25h0L199,93l-1-.17a4.2,4.2,0,0,0-2.23.18,11,11,0,0,0-1.72.92,5.21,5.21,0,0,1-2.05.78,3.23,3.23,0,0,1-1.62-.21l-.67-.25.25.66a3.28,3.28,0,0,1,.22,1.63,2.88,2.88,0,0,1-.09.4,5.54,5.54,0,0,1-.59,1.29c-.25.42-.52.84-.75,1.27a3.9,3.9,0,0,0-.45,3l.26,1-1.84-1.87.66,2.54-.79-.65a4.14,4.14,0,0,0-2-1,11.5,11.5,0,0,0-2-.06,5.34,5.34,0,0,1-2.16-.35,3.34,3.34,0,0,1-1.3-1l-.45-.56c-.05.24-.08.47-.12.71a3.12,3.12,0,0,1-.63,1.51,2.61,2.61,0,0,1-.27.31,5.76,5.76,0,0,1-1.16.82c-.43.24-.87.46-1.29.72a3.9,3.9,0,0,0-1.89,2.39l-.26,1-.65-2.54.2-1.17a4.1,4.1,0,0,1,1.78-2.81c.41-.3.84-.55,1.26-.82a5.1,5.1,0,0,0,1.13-.93,2.18,2.18,0,0,0,.26-.36,4.19,4.19,0,0,0,.55-1.82c0-.29,0-.58.07-.86.17.23.32.47.49.7a4.06,4.06,0,0,0,1.39,1.31,4.74,4.74,0,0,0,2.22.55,10.15,10.15,0,0,1,2,.2,4.66,4.66,0,0,1,2.12,1.31l.83.85-.41-1.12a4.11,4.11,0,0,1,.14-3.33c.2-.46.45-.89.68-1.34a4.71,4.71,0,0,0,.51-1.37,3.12,3.12,0,0,0,0-.44,4.1,4.1,0,0,0-.44-1.85c-.12-.27-.25-.52-.37-.78l.78.36a4.13,4.13,0,0,0,1.85.44,4.74,4.74,0,0,0,2.2-.63,9.89,9.89,0,0,1,1.82-.81,4.58,4.58,0,0,1,2.49.07l1.14.31ZM188,99.24h0a.65.65,0,0,1-.91,0,.63.63,0,0,1,0-.9.65.65,0,0,1,.91,0,.63.63,0,0,1,0,.9Zm6.7-6.7h0a.63.63,0,0,1-.9,0,.65.65,0,0,1,0-.91.63.63,0,0,1,.9,0,.65.65,0,0,1,0,.91Zm-2.43,1h0a.63.63,0,0,1-.9,0,.65.65,0,0,1,0-.91.63.63,0,0,1,.9,0,.65.65,0,0,1,0,.91ZM189,96.81h0a.65.65,0,0,1-.91,0,.63.63,0,0,1,0-.9.65.65,0,0,1,.91,0,.63.63,0,0,1,0,.9ZM174.7,104h0a.64.64,0,0,0,.45-.78.65.65,0,0,0-.79-.45.64.64,0,1,0,.34,1.23Zm9.16-2.45h0a.64.64,0,1,1-.33-1.24.64.64,0,0,1,.33,1.24Zm-2.62-.34h0a.64.64,0,0,1-.78-.45.64.64,0,1,1,.78.45Zm-4.45,1.19h0a.64.64,0,1,1,.45-.78.64.64,0,0,1-.45.78Zm-4.31,3h0l-.71,2.54-.35-1a4.17,4.17,0,0,0-1.28-1.84,10.7,10.7,0,0,0-1.65-1,5.24,5.24,0,0,1-1.7-1.37,3.41,3.41,0,0,1-.63-1.52c0-.24-.07-.47-.11-.7-.16.18-.3.36-.45.55a3.23,3.23,0,0,1-1.31,1l-.38.13a5.57,5.57,0,0,1-1.42.12c-.49,0-1,0-1.48,0a3.9,3.9,0,0,0-2.83,1.12l-.71.71.71-2.53.76-.91a4.1,4.1,0,0,1,2.95-1.55c.5,0,1,0,1.5-.08a4.79,4.79,0,0,0,1.45-.24,2.87,2.87,0,0,0,.4-.18,4,4,0,0,0,1.38-1.31l.5-.7c0,.28,0,.57.07.86a4.06,4.06,0,0,0,.55,1.82,4.8,4.8,0,0,0,1.64,1.59,9.13,9.13,0,0,1,1.61,1.16,4.62,4.62,0,0,1,1.19,2.19l.3,1.15Zm-11.66-3.95h0a.64.64,0,1,1,.79-.45.64.64,0,0,1-.79.45ZM170,104h0a.64.64,0,0,0,.79-.45.65.65,0,0,0-.45-.79A.64.64,0,0,0,170,104Zm-2.09-1.6h0a.64.64,0,0,1,.33-1.24.64.64,0,0,1-.33,1.24Zm-4.45-1.2h0a.64.64,0,0,1-.46-.78.65.65,0,0,1,.79-.45.64.64,0,0,1-.33,1.23Zm-5.26.49h0l-1.88,1.84.17-1a4.13,4.13,0,0,0-.18-2.24,10.19,10.19,0,0,0-.92-1.72,5.33,5.33,0,0,1-.78-2,3.13,3.13,0,0,1,.22-1.62c.08-.23.17-.45.25-.67l-.67.25a3.26,3.26,0,0,1-1.63.21,1.8,1.8,0,0,1-.39-.08,5,5,0,0,1-1.29-.6c-.43-.25-.84-.52-1.28-.75a3.85,3.85,0,0,0-3-.44l-1,.25,1.88-1.83-2.55.65.65-.78a4.22,4.22,0,0,0,1-2,11.37,11.37,0,0,0,.07-1.94,5.14,5.14,0,0,1,.34-2.16,3.23,3.23,0,0,1,1-1.31c.19-.15.37-.29.55-.45l-.7-.11a3.36,3.36,0,0,1-1.52-.63,1.93,1.93,0,0,1-.3-.27,5.45,5.45,0,0,1-.82-1.17c-.24-.42-.47-.86-.73-1.28a3.92,3.92,0,0,0-2.39-1.9l-1-.25,2.54-.66,1.17.21a4.12,4.12,0,0,1,2.82,1.78c.29.4.54.84.81,1.26a5.09,5.09,0,0,0,.94,1.13,2.36,2.36,0,0,0,.36.26,4,4,0,0,0,1.82.54l.86.08-.71.49a4.22,4.22,0,0,0-1.31,1.38,4.92,4.92,0,0,0-.55,2.22,9.37,9.37,0,0,1-.2,2,4.53,4.53,0,0,1-1.31,2.12l-.84.84,1.11-.41a4.11,4.11,0,0,1,3.33.13c.46.2.89.46,1.34.69a5.14,5.14,0,0,0,1.37.51,2.18,2.18,0,0,0,.44,0,4.1,4.1,0,0,0,1.85-.44l.78-.36c-.11.26-.24.51-.36.78a4.1,4.1,0,0,0-.44,1.85,4.74,4.74,0,0,0,.63,2.2,9.93,9.93,0,0,1,.82,1.82,4.64,4.64,0,0,1-.08,2.48l-.31,1.15Zm-8.12-9.25h0a.63.63,0,0,1,0-.9.65.65,0,0,1,.91,0,.65.65,0,0,1,0,.9.65.65,0,0,1-.91,0Zm6.71,6.71h0a.63.63,0,0,1,0-.9.62.62,0,0,1,.9,0,.64.64,0,1,1-.9.9Zm-1-2.43h0a.65.65,0,0,1,0-.91.63.63,0,0,1,.9,0,.65.65,0,0,1,0,.91.63.63,0,0,1-.9,0Zm-3.27-3.26h0a.64.64,0,1,1,.91,0,.67.67,0,0,1-.91,0Zm-7.2-14.28h0a.64.64,0,0,0,1.24-.33.64.64,0,0,0-.79-.45.64.64,0,0,0-.45.78Zm2.46,9.16h0a.63.63,0,0,1,.45-.78.64.64,0,0,1,.33,1.23.63.63,0,0,1-.78-.45Zm.34-2.61h0a.64.64,0,1,1,1.23-.33.64.64,0,0,1-1.23.33Zm-1.2-4.46h0a.64.64,0,0,1,1.24-.33.65.65,0,0,1-.46.79.64.64,0,0,1-.78-.46Zm-3-4.31h0l-2.53-.7.95-.35a4.25,4.25,0,0,0,1.85-1.28,12,12,0,0,0,1-1.65,5.14,5.14,0,0,1,1.38-1.7,3.22,3.22,0,0,1,1.51-.63l.7-.11-.55-.46a3.18,3.18,0,0,1-1-1.3,1.63,1.63,0,0,1-.13-.39,5.49,5.49,0,0,1-.13-1.41c0-.49,0-1,0-1.48a3.86,3.86,0,0,0-1.12-2.83l-.7-.71,2.53.71.9.76a4.15,4.15,0,0,1,1.56,2.95c0,.5,0,1,.07,1.5a4.73,4.73,0,0,0,.24,1.44,2.17,2.17,0,0,0,.19.41,4.09,4.09,0,0,0,1.3,1.38c.24.17.48.32.71.49l-.86.08a4,4,0,0,0-1.82.54,4.83,4.83,0,0,0-1.59,1.65,9.73,9.73,0,0,1-1.17,1.61A4.52,4.52,0,0,1,145,76.63l-1.15.3Zm3.95-11.65h0a.64.64,0,0,1,1.24.33.65.65,0,0,1-.79.45.64.64,0,0,1-.45-.78Zm-2.46,9.16h0a.64.64,0,0,0,.46.78.63.63,0,0,0,.78-.45.64.64,0,0,0-.45-.78.65.65,0,0,0-.79.45Zm1.61-2.09h0a.63.63,0,0,1,.78-.45.64.64,0,1,1-.78.45Zm1.19-4.46h0a.64.64,0,0,1,1.24.33.66.66,0,0,1-.79.46.65.65,0,0,1-.45-.79Zm-.48-5.25h0l1.14.31a4.58,4.58,0,0,0,2.49.07,9.22,9.22,0,0,0,1.81-.82,4.85,4.85,0,0,1,2.2-.62,4,4,0,0,1,1.85.44l.78.36c-.11-.26-.24-.51-.36-.78a4.1,4.1,0,0,1-.44-1.85,3.13,3.13,0,0,1,0-.44,4.84,4.84,0,0,1,.52-1.37c.23-.45.48-.88.68-1.34a4.07,4.07,0,0,0,.13-3.33l-.4-1.11.83.84A4.74,4.74,0,0,0,161,54.31a10.15,10.15,0,0,0,2,.2,4.77,4.77,0,0,1,2.22.55,4,4,0,0,1,1.38,1.31l.5.7c0-.28,0-.56.07-.85a4.1,4.1,0,0,1,.55-1.83A3.9,3.9,0,0,1,168,54a5.34,5.34,0,0,1,1.13-.93c.43-.27.86-.52,1.27-.81a4.14,4.14,0,0,0,1.78-2.82l.2-1.17-.65-2.54-.26,1a3.89,3.89,0,0,1-1.9,2.39c-.41.26-.85.48-1.28.73a5.35,5.35,0,0,0-1.16.81,4.12,4.12,0,0,0-.28.31,3.2,3.2,0,0,0-.62,1.51c-.05.24-.08.47-.12.7-.15-.17-.3-.36-.45-.54a3.27,3.27,0,0,0-1.3-1,5.34,5.34,0,0,0-2.16-.35,10.55,10.55,0,0,1-1.95-.06,4.22,4.22,0,0,1-2-1l-.78-.65.66,2.55-1.84-1.88.26,1a3.92,3.92,0,0,1-.45,3c-.23.43-.5.85-.75,1.27a6.26,6.26,0,0,0-.6,1.29,2.83,2.83,0,0,0-.08.4,3.27,3.27,0,0,0,.21,1.63c.09.22.18.44.25.66-.22-.07-.43-.16-.66-.25a3.27,3.27,0,0,0-1.63-.21,5.17,5.17,0,0,0-2,.78,11,11,0,0,1-1.72.92,4.23,4.23,0,0,1-2.24.18l-1-.17,1.85,1.88Zm9.24-8.12h0a.64.64,0,1,1,0,.9.63.63,0,0,1,0-.9Zm-6.71,6.7h0a.64.64,0,1,1,0,.91.65.65,0,0,1,0-.91Zm2.44-1h0a.63.63,0,0,1,.9,0,.65.65,0,0,1,0,.91.63.63,0,0,1-.9,0,.65.65,0,0,1,0-.91ZM155.88,57h0a.64.64,0,1,1,0,.9.63.63,0,0,1,0-.9Zm14.27-7.2h0a.65.65,0,0,1,.79.45.64.64,0,1,1-.79-.45ZM161,52.2h0a.64.64,0,1,1,.33,1.24.64.64,0,0,1-.78-.45.65.65,0,0,1,.45-.79Zm2.61.34h0a.64.64,0,1,1-.45.78.64.64,0,0,1,.45-.78Zm4.46-1.19h0a.64.64,0,0,1,.78.45.64.64,0,0,1-1.23.33.64.64,0,0,1,.45-.78Zm16,.9h0a.64.64,0,1,0,.46.78.64.64,0,0,0-.46-.78Zm-9.16-2.46h0a.64.64,0,1,0,.45.79.64.64,0,0,0-.45-.79Zm2.09,1.6h0a.64.64,0,0,0-.33,1.24.64.64,0,1,0,.33-1.24Zm4.46,1.2h0a.63.63,0,0,0-.78.45.64.64,0,0,0,.45.78.63.63,0,0,0,.78-.45A.64.64,0,0,0,181.41,52.59Z"/><path class="cls-2" d="M526.71,77,504.16,54.45V22.55h-31.9L449.71,0,427.16,22.55h-31.9v31.9L372.71,77l22.55,22.55v31.9h31.9L449.71,154l22.55-22.55h31.9V99.55L526.71,77Zm-29.4-29.39h0v9.67L517,77,504.16,89.88l-6.85,6.84v27.89H469.43l-6.84,6.84-12.88,12.88-12.88-12.88L430,124.61H402.1V96.72l-6.84-6.84L382.38,77,402.1,57.28V29.39H430L449.71,9.67l12.88,12.88,6.84,6.84h27.88Z"/><polygon class="cls-2" points="439.62 124.61 459.82 124.61 449.72 134.71 439.62 124.61"/><polygon class="cls-2" points="402.1 66.88 402.1 87.09 392 76.99 402.1 66.88"/><polygon class="cls-2" points="459.86 29.39 439.59 29.39 449.72 19.26 459.86 29.39"/><polygon class="cls-2" points="507.45 76.99 497.31 87.12 497.31 66.85 507.45 76.99"/></g></g></svg>