<svg xmlns="http://www.w3.org/2000/svg" viewBox="0 0 331 213.59"><defs><style>.cls-1{fill:#ebebeb;}.cls-2,.cls-4{fill:#5f8772;}.cls-3{fill:#cf7e72;}.cls-4{font-size:20.97px;font-family:MyriadPro-Regular, Myriad Pro;}.cls-5{fill:#dcbfb7;}.cls-6{fill:#f7c487;}</style></defs><g id="Layer_2" data-name="Layer 2"><g id="Layer_1-2" data-name="Layer 1"><path class="cls-1" d="M322.77,213.59V143.65h-3.21s.56-3.8-1.32-5.69-3.28-1.88-3.28-1.88v-4h-1.81s10.18-17.43,8.51-44.75-16.17-52.69-38.2-66.35c-19.82-12.3-29-12.4-30.67-12.29h-.55c-1.64-.11-10.85,0-30.67,12.29-22,13.66-36.53,39-38.2,66.35S191.88,132,191.88,132h-1.82v4s-1.39,0-3.27,1.88-1.33,5.69-1.33,5.69h-3.2v69.94Z"/><path class="cls-2" d="M331,188H316.47V149.54h-4.35l1.11-7.56h-4.56v-4h-7.21L307.84,127c.08-.13,9-16.1,7.53-40.64-1.53-25-14.86-48.27-34.77-60.63-18.43-11.43-26.34-11.24-26.41-11.21a11.37,11.37,0,0,1-1.43,0c-.08,0-8-.22-26.4,11.21L218.7,13.4C238.93.85,249.65-.17,253.48,0c3.8-.19,14.52.82,34.77,13.38,23.86,14.79,39.8,42.41,41.62,72.08a98.16,98.16,0,0,1-6.68,43v2c.38.32.77.66,1.15,1.05a11,11,0,0,1,2.38,3.56H331Z"/><path class="cls-3" d="M41.46,151.29a2.92,2.92,0,0,0,2.11,1,2.6,2.6,0,0,0,2.09-.89,5.17,5.17,0,0,0,1.06-2.15,8,8,0,0,0,.19-2.59,8.28,8.28,0,0,0-.44-2.22,4.76,4.76,0,0,1-3.48-.62,4.18,4.18,0,0,1-1.59-2.36,7.41,7.41,0,0,1-.08-3.23A10.48,10.48,0,0,1,42.4,135a7.54,7.54,0,0,1,1.93-2.36,2.75,2.75,0,0,1,2.36-.67,4.56,4.56,0,0,1,2.48,1.89,16,16,0,0,1,2.26,5.27,30.44,30.44,0,0,1,.8,4.7,27.47,27.47,0,0,1,.06,5,17.78,17.78,0,0,1-1,4.59,9.08,9.08,0,0,1-2.22,3.56,7.21,7.21,0,0,1-5.52,2.34,7.11,7.11,0,0,1-5.34-2.11H9.16a9.48,9.48,0,0,1-4.31-.89A8.16,8.16,0,0,1,2,153.93a8.79,8.79,0,0,1-1.56-3.17,12,12,0,0,1-.45-3.4,9.53,9.53,0,0,1,.53-3,4.94,4.94,0,0,1,1.34-2.12c.11-.11.17,0,.19.34s.07.79.14,1.36a11.57,11.57,0,0,0,.42,1.92,5.45,5.45,0,0,0,1.06,2,5.78,5.78,0,0,0,2,1.53,7.76,7.76,0,0,0,3.34.61H39.29a5.58,5.58,0,0,1,1,.06.71.71,0,0,1,.39.19,2.26,2.26,0,0,1,.22.39A2.63,2.63,0,0,0,41.46,151.29Zm-6.66,8.77a4.49,4.49,0,0,1,3.26,1.28,4.64,4.64,0,0,1,0,6.46,4.45,4.45,0,0,1-3.26,1.28,4.51,4.51,0,0,1,0-9Z"/><path class="cls-3" d="M67.34,155.63a23.24,23.24,0,0,1-2,7.91,22.68,22.68,0,0,1-9.94,10.52,26.85,26.85,0,0,1-6.87,2.54,29.65,29.65,0,0,1-7.49.67A30.2,30.2,0,0,1,33.43,176a20.18,20.18,0,0,1-3-1.19A14.64,14.64,0,0,1,28,173.31a29.51,29.51,0,0,1-2.28-2q-1.17-1.12-2.67-2.73c-.34-.34-.54-.55-.62-.64s-.08-.13,0-.11a2.09,2.09,0,0,1,.33.16,3.22,3.22,0,0,0,.53.25,42.11,42.11,0,0,0,12.14,3.37A37.85,37.85,0,0,0,47,171.28a26.17,26.17,0,0,0,10.33-4.12A14.42,14.42,0,0,0,62.83,160a2.93,2.93,0,0,0,.11-.62,5.46,5.46,0,0,0,.06-.72,9.74,9.74,0,0,0-.64-3.29,40.84,40.84,0,0,0-1.7-3.95.89.89,0,0,0-.58-.36,5,5,0,0,0-1.26.2,1.47,1.47,0,0,1-1.78-.73,5.72,5.72,0,0,1-.61-2.56,13.09,13.09,0,0,1,.36-3.4A13.76,13.76,0,0,1,58,141.27a5.79,5.79,0,0,1,1.76-2.15,1.89,1.89,0,0,1,2.17,0h0l.11.11a7.56,7.56,0,0,1,2.51,3,25.5,25.5,0,0,1,1.67,4.35A10.91,10.91,0,0,0,69.54,149a12,12,0,0,0,5,1v7.3c-1.67-.08-3.13-.21-4.37-.39A4.86,4.86,0,0,1,67.34,155.63Z"/><path class="cls-3" d="M90.12,153.46c-1.41.67-2.74,1.24-4,1.7a33,33,0,0,1-3.76,1.14,28.77,28.77,0,0,1-3.93.64c-1.35.13-2.85.2-4.48.2V150c1.22,0,2.42-.09,3.59-.16s2.23-.17,3.18-.28,1.77-.24,2.47-.39a4.64,4.64,0,0,0,1.56-.56,23.24,23.24,0,0,0-2.09-1.36,14.94,14.94,0,0,0-1.75-.87,13.58,13.58,0,0,0-1.61-.52c-.53-.13-1.1-.25-1.73-.37-.78-.07-1.11-.59-1-1.56s.18-1.82.22-2.58a25.67,25.67,0,0,1,.28-2.59,5.67,5.67,0,0,1,1.47-2.29,12.06,12.06,0,0,1,2.87-2.11,21.16,21.16,0,0,1,3.9-1.62,20.65,20.65,0,0,1,4.62-.83h.34a20.19,20.19,0,0,1,4.59.83,20.52,20.52,0,0,1,3.84,1.62,12.27,12.27,0,0,1,2.84,2.11,7.21,7.21,0,0,1,1.59,2.29c.11,1,.18,1.83.22,2.59a25.5,25.5,0,0,0,.28,2.58,1.57,1.57,0,0,1,0,1.09,1.47,1.47,0,0,1-1,.47c-.67.12-1.27.24-1.79.37a11.65,11.65,0,0,0-1.58.52,16.48,16.48,0,0,0-1.73.87,24.75,24.75,0,0,0-2.09,1.36,4.82,4.82,0,0,0,1.56.56c.71.15,1.53.28,2.48.39s2,.2,3.15.28,2.34.13,3.56.16v7.19c-1.63,0-3.13-.07-4.48-.2a28.77,28.77,0,0,1-3.93-.64A33,33,0,0,1,94,155.16C92.8,154.7,91.49,154.13,90.12,153.46Zm-5.63-12.92a15.92,15.92,0,0,1,3,1.65c.93.65,1.8,1.29,2.62,1.92.78-.63,1.64-1.27,2.59-1.92a17.35,17.35,0,0,1,3-1.65,11,11,0,0,0-5.57-1.78A11.24,11.24,0,0,0,84.49,140.54Zm5.63-20.49a4.51,4.51,0,1,1,0,9,4.51,4.51,0,1,1,0-9Z"/><path class="cls-3" d="M138.62,157.14a6,6,0,0,1-1.87-.31,9.29,9.29,0,0,1-1.89-.83,8.76,8.76,0,0,1-1.7-1.29,6.87,6.87,0,0,1-1.28-1.64c-.33,2.53-1.08,4.34-2.23,5.43a5.5,5.5,0,0,1-4.17,1.56,12.27,12.27,0,0,1-5.4-1.7,27.65,27.65,0,0,1-5.85-4.4,7,7,0,0,1-1.89,1.53,12.18,12.18,0,0,1-2.2.95,14.56,14.56,0,0,1-2.29.53,15,15,0,0,1-2.14.17V150c.85,0,1.73,0,2.62-.08a13.09,13.09,0,0,0,2.59-.42,11.13,11.13,0,0,0,2.42-1,8.24,8.24,0,0,0,2.17-1.76,21.2,21.2,0,0,1,2.31-2.39,35.73,35.73,0,0,1,2.78-2.26,19,19,0,0,1,2.76-1.67,5.66,5.66,0,0,1,2.34-.64,4.41,4.41,0,0,1,2.56.76,10.24,10.24,0,0,1,2.06,1.86,25.08,25.08,0,0,1,1.81,2.4c.58.85,1.18,1.66,1.81,2.42a10.19,10.19,0,0,0,2.09,1.92,4.74,4.74,0,0,0,2.59.83Zm-10.92-6.07a7.21,7.21,0,0,0-.47-1.48,9.65,9.65,0,0,0-.89-1.64,6,6,0,0,0-1.17-1.31,2,2,0,0,0-1.25-.53,4.15,4.15,0,0,0-1.39.75,20.06,20.06,0,0,0-2.18,1.7,5,5,0,0,0,1.29,1.26c.63.46,1.3.9,2,1.33a16,16,0,0,0,2.11,1.06,4.66,4.66,0,0,0,1.59.42Q127.92,152.63,127.7,151.07Z"/><path class="cls-3" d="M138.12,150a10.58,10.58,0,0,1,2.25.23,3.71,3.71,0,0,1,1.78.89,4.76,4.76,0,0,1,1.23,1.84A9.84,9.84,0,0,1,144,156a4.92,4.92,0,0,0,2.18-1.51,6.13,6.13,0,0,0,2-4.73V122.84a3.91,3.91,0,0,1-3.26-.67,3.47,3.47,0,0,1-1-2.45,8.79,8.79,0,0,1,.61-3.32,14.85,14.85,0,0,1,1.73-3.31,10.87,10.87,0,0,1,2.28-2.42,2.62,2.62,0,0,1,2.26-.64c.69.18,1.24.85,1.67,2a16.37,16.37,0,0,1,.58,5.52v33.52a2.56,2.56,0,0,0,.51,1.61,2.81,2.81,0,0,0,1.16.95,14.47,14.47,0,0,1-3.11,5.65,13.53,13.53,0,0,1-5.63,3.65h-.11l-3.56-5.29a1.2,1.2,0,0,0-.84-.5h-3.28Z"/><path class="cls-3" d="M163.81,159.79a2.5,2.5,0,0,0,1.68,2.68,14.79,14.79,0,0,1-3.23,5.65,14,14,0,0,1-5.57,3.64h-.06l-4.45-6.45a6.55,6.55,0,0,0,4.79-2,7.09,7.09,0,0,0,1.47-2.12,6.31,6.31,0,0,0,.53-2.61V125.49a3.9,3.9,0,0,1-3.28-.67,3.46,3.46,0,0,1-1.09-2.45,8.3,8.3,0,0,1,.58-3.31,14.25,14.25,0,0,1,1.73-3.31,10.65,10.65,0,0,1,2.28-2.42,2.63,2.63,0,0,1,2.29-.64c.7.18,1.28.85,1.72,2a15.69,15.69,0,0,1,.61,5.51Z"/><path class="cls-2" d="M38.28,86q-8.37.57-11.85,5.39c-.26.38-.5.56-.73.54a.78.78,0,0,1-.57-.38,2.13,2.13,0,0,1-.29-.8,1.44,1.44,0,0,1,.07-.76,5.38,5.38,0,0,1,.85-1.87,8.79,8.79,0,0,1,1.81-1.87,20.54,20.54,0,0,1-2.76-1,8.3,8.3,0,0,1-1.65-1,4.51,4.51,0,0,1-.92-.95,8,8,0,0,1-.56-1,5.1,5.1,0,0,1-.2-3.65,8.73,8.73,0,0,1,2.16-3.64,10.13,10.13,0,0,1,4-2.5,9,9,0,0,1,5.16-.22c1.69.38,2.75.86,3.17,1.45a1.56,1.56,0,0,1,.19,1.75,4.05,4.05,0,0,1-1.64,1.55,6.52,6.52,0,0,1-2.35.85,2.68,2.68,0,0,1-1.9-.34c-.51-.34-.61-1-.32-2a3.33,3.33,0,0,0-1.49.09,5.09,5.09,0,0,0-1.42.64,3.62,3.62,0,0,0-1.05,1,2.19,2.19,0,0,0-.41,1.24,2.9,2.9,0,0,0,2.09,2.72,11.52,11.52,0,0,0,4.34.48,23.68,23.68,0,0,0,4.76-.8A33.28,33.28,0,0,0,40.12,80c.63-.34.94-.23.91.34a6.5,6.5,0,0,1-.53,2.1,18.68,18.68,0,0,1-1.18,2.37C38.88,85.52,38.53,86,38.28,86Z"/><path class="cls-2" d="M50.07,88A2.83,2.83,0,0,0,52,91a16.69,16.69,0,0,1-3.68,6.43A15.82,15.82,0,0,1,42,101.62h-.06l-5.07-7.35A7.44,7.44,0,0,0,42.27,92,8.06,8.06,0,0,0,44,89.58a7.18,7.18,0,0,0,.6-3V49c-1.73.21-3,0-3.74-.76a4,4,0,0,1-1.23-2.79,9.42,9.42,0,0,1,.66-3.77,16.26,16.26,0,0,1,2-3.77,12.14,12.14,0,0,1,2.6-2.76,3,3,0,0,1,2.59-.73c.81.22,1.46,1,2,2.29a18,18,0,0,1,.7,6.27V79.82h7.09V88Z"/><path class="cls-2" d="M65.15,81.34a3.33,3.33,0,0,0,2.41,1.08,2.92,2.92,0,0,0,2.37-1A6.19,6.19,0,0,0,71.17,79,10,10,0,0,0,71,73.48a5.39,5.39,0,0,1-4-.73,5,5,0,0,1-1.86-2.69A8,8,0,0,1,65,66.42a12.37,12.37,0,0,1,1.23-3.68,8.44,8.44,0,0,1,2.19-2.69,3.28,3.28,0,0,1,2.69-.76,5,5,0,0,1,2.82,2.15,18.73,18.73,0,0,1,2.57,6,31.06,31.06,0,0,1,.92,4.88,39.41,39.41,0,0,1,.22,5.2,1.57,1.57,0,0,0,.6,1.3,3.89,3.89,0,0,0,1.59.7,12.21,12.21,0,0,0,2.28.25q1.29,0,2.76,0V88H80.17A4.62,4.62,0,0,1,78,87.2a4.15,4.15,0,0,1-1.84-2.63,11.22,11.22,0,0,1-1,1.72,11.09,11.09,0,0,1-1.24,1.45,8.09,8.09,0,0,1-6.33,2.66A8.41,8.41,0,0,1,61.47,88H56.59V79.82H62.8a7.16,7.16,0,0,1,1.14.06.65.65,0,0,1,.42.23,2.18,2.18,0,0,1,.18.44A2.62,2.62,0,0,0,65.15,81.34Zm1.52,11.79A4.58,4.58,0,0,1,70,94.46a4.37,4.37,0,0,1,1.36,3.23,4.64,4.64,0,0,1-4.69,4.69A4.32,4.32,0,0,1,63.44,101a4.58,4.58,0,0,1-1.33-3.33,4.54,4.54,0,0,1,4.56-4.56Zm9.88,0a4.38,4.38,0,0,1,3.27,1.33,4.48,4.48,0,0,1,1.3,3.23,4.68,4.68,0,0,1-1.3,3.33,4.33,4.33,0,0,1-3.27,1.36A4.45,4.45,0,0,1,73.29,101a4.53,4.53,0,0,1-1.36-3.33,4.34,4.34,0,0,1,1.36-3.23A4.5,4.5,0,0,1,76.55,93.13Z"/><path class="cls-2" d="M84.22,79.82a12.8,12.8,0,0,1,2.57.25,4.4,4.4,0,0,1,2,1,5.43,5.43,0,0,1,1.39,2.09,11.35,11.35,0,0,1,.67,3.48A5.48,5.48,0,0,0,93.35,85a7,7,0,0,0,2.28-5.38V49c-1.73.21-3,0-3.71-.76a3.92,3.92,0,0,1-1.17-2.79,9.88,9.88,0,0,1,.7-3.77,16.23,16.23,0,0,1,2-3.77A12.14,12.14,0,0,1,96,35.11a3,3,0,0,1,2.57-.73c.78.22,1.41,1,1.9,2.29a19,19,0,0,1,.66,6.27V81.09a3,3,0,0,0,.57,1.84A3.28,3.28,0,0,0,103,84a16.46,16.46,0,0,1-3.55,6.44,15.28,15.28,0,0,1-6.4,4.15H93l-4.06-6A1.37,1.37,0,0,0,88,88H84.22Z"/><path class="cls-2" d="M132.45,86.29a26.6,26.6,0,0,1-2.32,9,25.65,25.65,0,0,1-11.31,12,30.38,30.38,0,0,1-7.83,2.88,33,33,0,0,1-8.52.76,34.45,34.45,0,0,1-8.62-1.42,22.56,22.56,0,0,1-3.45-1.36,16.82,16.82,0,0,1-2.69-1.72,31.5,31.5,0,0,1-2.6-2.25c-.89-.84-1.9-1.88-3-3.1-.38-.38-.62-.62-.7-.73s-.1-.15,0-.13l.38.2c.19.1.39.19.6.28a48.4,48.4,0,0,0,13.81,3.83,43.56,43.56,0,0,0,13.19-.41,29.63,29.63,0,0,0,11.75-4.69,16.45,16.45,0,0,0,6.24-8.17,5.9,5.9,0,0,0,.22-1.65,18,18,0,0,0,0-2,27,27,0,0,1-3.26.51,24,24,0,0,1-3.71.1,20.93,20.93,0,0,1-3.67-.51,10.42,10.42,0,0,1-3.17-1.27,6.72,6.72,0,0,1-2.25-2.25,6.43,6.43,0,0,1-.86-3.42,14.46,14.46,0,0,1,.8-4.5,17.82,17.82,0,0,1,2.18-4.47,13.23,13.23,0,0,1,3.33-3.42A7.14,7.14,0,0,1,121.1,67q2.91,0,6.09,3.42a22.68,22.68,0,0,1,4.12,7A19.58,19.58,0,0,1,132.45,86.29Zm-7.55-7a6.1,6.1,0,0,0-2.4-2.82,9,9,0,0,0-3.27-1.33,5.07,5.07,0,0,0-2.85.22,1.84,1.84,0,0,0-1.23,1.84q0,2.59,5.38,2.6a17.39,17.39,0,0,0,2.16-.13A20.47,20.47,0,0,0,124.9,79.25Z"/><path class="cls-2" d="M150.13,28.62q-6.6.38-9.32,4.24c-.21.26-.41.37-.6.35a.67.67,0,0,1-.48-.28,1.46,1.46,0,0,1-.25-.61,1.23,1.23,0,0,1,.06-.66,7.6,7.6,0,0,1,.76-1.46,5.14,5.14,0,0,1,1.46-1.39,13,13,0,0,1-3.55-1.59,3.51,3.51,0,0,1-1.2-1.58,4,4,0,0,1-.16-2.79A6.56,6.56,0,0,1,138.47,20a7.81,7.81,0,0,1,3.07-2,7.25,7.25,0,0,1,4.28-.12A4.17,4.17,0,0,1,148,19a1.3,1.3,0,0,1,.29,1.23,2.45,2.45,0,0,1-.73,1.08,2.25,2.25,0,0,1-.86.54,5.48,5.48,0,0,1-1.49.31,3.91,3.91,0,0,1-1.36-.09,1.16,1.16,0,0,1-.76-.54c-.12-.25,0-.61.38-1.08a2.45,2.45,0,0,0-1.17,0,3.14,3.14,0,0,0-1.08.5,3.41,3.41,0,0,0-.79.82,1.7,1.7,0,0,0-.32.92,2.31,2.31,0,0,0,1.62,2.22,8.2,8.2,0,0,0,3.39.35,20.64,20.64,0,0,0,3.74-.66,20,20,0,0,0,2.66-.89c.55-.26.82-.15.82.32a4.13,4.13,0,0,1-.41,1.64,13.36,13.36,0,0,1-1,1.87A3.69,3.69,0,0,1,150.13,28.62ZM150.51,88a2.83,2.83,0,0,0,1.9,3,16.69,16.69,0,0,1-3.68,6.43,15.86,15.86,0,0,1-6.33,4.15h-.07l-5.07-7.35A7.44,7.44,0,0,0,142.71,92a8.06,8.06,0,0,0,1.68-2.41,7.18,7.18,0,0,0,.6-3V49c-1.73.21-3,0-3.73-.76A3.94,3.94,0,0,1,140,45.41a9.42,9.42,0,0,1,.66-3.77,16.66,16.66,0,0,1,2-3.77,12.14,12.14,0,0,1,2.6-2.76,3,3,0,0,1,2.59-.73c.81.22,1.46,1,2,2.29a18,18,0,0,1,.7,6.27Z"/><text class="cls-4" transform="translate(189.44 207.92)">ww.awlia.maa</text><path class="cls-2" d="M188.9,188H177.56V134.31h3.17a8.57,8.57,0,0,1,1.6-2.24c.2-.2.39-.38.59-.56v-.91a68.1,68.1,0,0,1-4.58-29.66l11.32.7c-1,16.84,5,27.4,5.07,27.51l5,8.53h-5.45v2.77h-3l1.05,5.53-3.43-.16Z"/><path class="cls-2" d="M232.83,97.77V92.71H228.4l0-1.76c.16-6.92-2.94-9.5-3.08-9.61l-2.07-1.58,2.29-1.27,2.11-1.18V72.49H232c.33-10.58,3.67-13.07,4.37-13.47l.86-.5.86.5c.7.4,4,2.89,4.36,13.47h4.32v4.82l4.38,2.46-2.07,1.59C249,81.45,245.87,84,246,91l0,1.76h-4.42v5.06l-4.41,3Z"/><path class="cls-3" d="M248.25,120.56V115.5h-4.43l0-1.76c.17-6.92-2.94-9.5-3.07-9.61l-2.07-1.58,2.29-1.27,2.11-1.18V95.28h4.31c.33-10.58,3.67-13.07,4.37-13.47l.86-.5.86.5c.7.4,4,2.89,4.36,13.47h4.32v4.82l4.38,2.46-2.07,1.59c-.12.09-3.22,2.67-3.06,9.59l0,1.76h-4.42v5.06l-4.41,3Z"/><path class="cls-5" d="M248.25,75V69.92h-4.43l0-1.76c.17-6.92-2.94-9.5-3.07-9.61L238.72,57,241,55.7l2.11-1.18V49.7h4.31c.33-10.58,3.67-13.07,4.37-13.47l.86-.5.86.5c.7.4,4,2.89,4.36,13.47h4.32v4.82L266.58,57l-2.07,1.59c-.12.09-3.22,2.67-3.06,9.59l0,1.76h-4.42V75l-4.41,3Z"/><path class="cls-6" d="M263.39,97.77V92.71H259L259,91c.16-6.92-2.94-9.5-3.07-9.61l-2.08-1.58,2.3-1.27,2.11-1.18V72.49h4.31c.33-10.58,3.67-13.07,4.36-13.47l.87-.5.86.5c.7.4,4,2.89,4.36,13.47h4.32v4.82l4.38,2.46-2.08,1.59c-.11.09-3.21,2.67-3,9.59l0,1.76h-4.42v5.06l-4.41,3Z"/></g></g></svg>