<svg xmlns="http://www.w3.org/2000/svg" viewBox="0 0 126.88 81.71"><defs><style>.cls-1,.cls-2{fill:#fff;}.cls-2{font-size:8.04px;font-family:MyriadPro-Regular, Myriad Pro;}</style></defs><g id="Layer_2" data-name="Layer 2"><g id="Layer_1-2" data-name="Layer 1"><path class="cls-1" d="M126.88,72.08h-5.57V57.32h-1.66l.42-2.9h-1.75V52.88h-2.76L118,48.69s3.46-6.17,2.88-15.58c-.59-9.6-5.69-18.51-13.33-23.24-7.06-4.38-10.09-4.31-10.12-4.3h-.55s-3.06-.08-10.12,4.3L83.84,5.14C91.59.33,95.7-.06,97.17,0c1.45-.08,5.56.31,13.33,5.13,9.14,5.67,15.25,16.26,16,27.63a37.43,37.43,0,0,1-2.56,16.46V50a5.31,5.31,0,0,1,.44.4,4.2,4.2,0,0,1,.91,1.37h1.64Z"/><path class="cls-1" d="M15.89,58a1.09,1.09,0,0,0,.81.37,1,1,0,0,0,.8-.34,2,2,0,0,0,.41-.83,3,3,0,0,0,.07-1,2.78,2.78,0,0,0-.17-.85,1.8,1.8,0,0,1-1.33-.24,1.58,1.58,0,0,1-.61-.9,2.85,2.85,0,0,1,0-1.24,4.06,4.06,0,0,1,.42-1.23,2.88,2.88,0,0,1,.73-.91,1.06,1.06,0,0,1,.91-.25,1.71,1.71,0,0,1,1,.72,6,6,0,0,1,.86,2,11.82,11.82,0,0,1,.31,1.8A10.08,10.08,0,0,1,20,57a6.72,6.72,0,0,1-.37,1.76,3.51,3.51,0,0,1-.85,1.37,2.77,2.77,0,0,1-2.12.9,2.74,2.74,0,0,1-2-.81H3.51a3.59,3.59,0,0,1-1.65-.35A3.07,3.07,0,0,1,.77,59a3.4,3.4,0,0,1-.6-1.22A4.6,4.6,0,0,1,0,56.49a3.86,3.86,0,0,1,.2-1.16,1.9,1.9,0,0,1,.52-.82s.06,0,.07.13,0,.31,0,.53A6.55,6.55,0,0,0,1,55.9a2.17,2.17,0,0,0,1.19,1.35,3.09,3.09,0,0,0,1.28.23H15.06l.38,0a.27.27,0,0,1,.15.08.49.49,0,0,1,.09.15A1.17,1.17,0,0,0,15.89,58Zm-2.55,3.37a1.71,1.71,0,0,1,1.25.49,1.68,1.68,0,0,1,.5,1.24,1.66,1.66,0,0,1-.5,1.23,1.72,1.72,0,0,1-1.25.5,1.68,1.68,0,0,1-1.21-.5,1.66,1.66,0,0,1-.5-1.23,1.69,1.69,0,0,1,1.71-1.73Z"/><path class="cls-1" d="M25.82,59.66a8.66,8.66,0,0,1-4.59,7.06,10.22,10.22,0,0,1-2.64,1,11.41,11.41,0,0,1-2.87.25,11.07,11.07,0,0,1-2.9-.48A6.64,6.64,0,0,1,11.65,67a5.26,5.26,0,0,1-.9-.57,11.59,11.59,0,0,1-.88-.76c-.3-.29-.64-.63-1-1.05l-.24-.24s0,0,0,0l.13.07a1.21,1.21,0,0,0,.2.09,16.25,16.25,0,0,0,4.65,1.3A14.91,14.91,0,0,0,18,65.66a10.08,10.08,0,0,0,4-1.58,5.5,5.5,0,0,0,2.11-2.76s0-.12,0-.23,0-.21,0-.28a3.65,3.65,0,0,0-.25-1.26A14.6,14.6,0,0,0,23.25,58,.32.32,0,0,0,23,57.9a2,2,0,0,0-.48.07.56.56,0,0,1-.68-.27,2.19,2.19,0,0,1-.24-1,5.15,5.15,0,0,1,.14-1.3,5.49,5.49,0,0,1,.45-1.26,2.16,2.16,0,0,1,.67-.82.72.72,0,0,1,.83,0h0l.05,0a3,3,0,0,1,1,1.15,10.33,10.33,0,0,1,.64,1.67,4,4,0,0,0,1.27.92,4.56,4.56,0,0,0,1.91.38v2.8q-1,0-1.68-.15A1.87,1.87,0,0,1,25.82,59.66Z"/><path class="cls-1" d="M34.55,58.83c-.55.25-1,.47-1.53.65a13.18,13.18,0,0,1-1.44.44,12.19,12.19,0,0,1-1.51.24c-.52.05-1.09.08-1.71.08V57.48c.46,0,.92,0,1.37-.06s.86-.07,1.22-.11a9.09,9.09,0,0,0,.95-.15,1.78,1.78,0,0,0,.6-.21,8.08,8.08,0,0,0-.8-.52,5.38,5.38,0,0,0-.68-.34,5.55,5.55,0,0,0-.62-.2l-.66-.14c-.3,0-.42-.22-.38-.59s.07-.71.08-1,0-.62.11-1a2.13,2.13,0,0,1,.57-.87,4.64,4.64,0,0,1,1.1-.82,7.85,7.85,0,0,1,1.49-.61,7.12,7.12,0,0,1,1.77-.32h.13a7,7,0,0,1,1.76.32,7.64,7.64,0,0,1,1.47.61,4.78,4.78,0,0,1,1.09.82,2.67,2.67,0,0,1,.61.87q.06.55.09,1a8,8,0,0,0,.1,1,.59.59,0,0,1,0,.41.55.55,0,0,1-.37.18l-.69.14a5.27,5.27,0,0,0-.6.2,6.06,6.06,0,0,0-.67.34,8.08,8.08,0,0,0-.8.52,1.78,1.78,0,0,0,.6.21,9.09,9.09,0,0,0,1,.15l1.21.11c.44,0,.89,0,1.36.06v2.76c-.62,0-1.2,0-1.71-.08a11.9,11.9,0,0,1-1.51-.24,13.18,13.18,0,0,1-1.44-.44C35.57,59.3,35.07,59.08,34.55,58.83Zm-2.16-5a7.05,7.05,0,0,1,1.15.63c.36.25.69.5,1,.74.29-.24.62-.49,1-.74a7.88,7.88,0,0,1,1.14-.63,4.21,4.21,0,0,0-2.13-.68A4.33,4.33,0,0,0,32.39,53.87ZM34.55,46a1.65,1.65,0,0,1,1.23.49,1.73,1.73,0,0,1-1.23,3A1.7,1.7,0,0,1,33.31,49a1.73,1.73,0,0,1,1.24-3Z"/><path class="cls-1" d="M53.14,60.24a2.36,2.36,0,0,1-.72-.12,3.86,3.86,0,0,1-.72-.32,3.17,3.17,0,0,1-.65-.49,2.72,2.72,0,0,1-.5-.63,3.38,3.38,0,0,1-.85,2.08,2.12,2.12,0,0,1-1.6.6A4.84,4.84,0,0,1,46,60.71,10.8,10.8,0,0,1,43.79,59a2.91,2.91,0,0,1-.73.59,4.43,4.43,0,0,1-.84.36,5.34,5.34,0,0,1-.88.2,6.05,6.05,0,0,1-.82.07V57.48l1,0a4.6,4.6,0,0,0,1.92-.53,3.27,3.27,0,0,0,.83-.68,9.2,9.2,0,0,1,.88-.91c.35-.32.71-.6,1.07-.87a6.79,6.79,0,0,1,1.06-.64,2.16,2.16,0,0,1,.89-.24,1.76,1.76,0,0,1,1,.28,4.4,4.4,0,0,1,.79.72,9.59,9.59,0,0,1,.69.92q.33.48.69.93a4.2,4.2,0,0,0,.8.73,1.85,1.85,0,0,0,1,.32ZM49,57.91a3,3,0,0,0-.18-.57,3.2,3.2,0,0,0-.34-.63,2.43,2.43,0,0,0-.45-.5.77.77,0,0,0-.48-.2,1.65,1.65,0,0,0-.53.29,7.18,7.18,0,0,0-.83.65,1.71,1.71,0,0,0,.49.48,7.5,7.5,0,0,0,.78.51,6.16,6.16,0,0,0,.81.41,1.89,1.89,0,0,0,.61.16Q49,58.51,49,57.91Z"/><path class="cls-1" d="M52.94,57.48a3.88,3.88,0,0,1,.87.09,1.42,1.42,0,0,1,.68.34,1.83,1.83,0,0,1,.47.7,3.84,3.84,0,0,1,.23,1.18,2,2,0,0,0,.83-.58,2.35,2.35,0,0,0,.77-1.81V47.09a1.49,1.49,0,0,1-1.25-.26,1.34,1.34,0,0,1-.4-.94,3.45,3.45,0,0,1,.24-1.27A5.66,5.66,0,0,1,56,43.35a4.34,4.34,0,0,1,.87-.93,1,1,0,0,1,.87-.24c.26.07.48.33.64.77a6.25,6.25,0,0,1,.22,2.11V57.91a1.08,1.08,0,0,0,.64,1,5.55,5.55,0,0,1-1.19,2.17,5.2,5.2,0,0,1-2.16,1.4h0l-1.37-2a.44.44,0,0,0-.32-.19H52.94Z"/><path class="cls-1" d="M62.8,61.25a1,1,0,0,0,.64,1,5.61,5.61,0,0,1-1.24,2.16,5.29,5.29,0,0,1-2.14,1.4h0l-1.71-2.47a2.51,2.51,0,0,0,1.84-.77,2.83,2.83,0,0,0,.57-.81,2.53,2.53,0,0,0,.2-1V48.11a1.53,1.53,0,0,1-1.26-.26,1.33,1.33,0,0,1-.42-.94,3.23,3.23,0,0,1,.23-1.27,5.46,5.46,0,0,1,.66-1.27,4.34,4.34,0,0,1,.87-.93,1,1,0,0,1,.88-.24c.27.07.49.32.66.76a6.25,6.25,0,0,1,.24,2.12Z"/><path class="cls-1" d="M14.67,33c-2.13.14-3.65.83-4.54,2.06-.1.15-.19.22-.28.21a.3.3,0,0,1-.22-.15,1,1,0,0,1-.11-.3.54.54,0,0,1,0-.29,2.09,2.09,0,0,1,.33-.72,3.07,3.07,0,0,1,.69-.71,8.72,8.72,0,0,1-1.06-.38,2.55,2.55,0,0,1-.63-.37A1.67,1.67,0,0,1,8.53,32a2.88,2.88,0,0,1-.22-.38,1.89,1.89,0,0,1-.07-1.39,3.3,3.3,0,0,1,.82-1.4,4,4,0,0,1,1.52-1,3.4,3.4,0,0,1,2-.08,2.08,2.08,0,0,1,1.21.55.6.6,0,0,1,.08.67,1.66,1.66,0,0,1-.63.6,2.48,2.48,0,0,1-.9.33,1,1,0,0,1-.73-.14q-.3-.19-.12-.78a1.25,1.25,0,0,0-.57,0,2.13,2.13,0,0,0-.55.24,1.49,1.49,0,0,0-.4.39.81.81,0,0,0-.16.48,1.12,1.12,0,0,0,.8,1,4.43,4.43,0,0,0,1.67.18,9.22,9.22,0,0,0,1.82-.3,13.21,13.21,0,0,0,1.3-.41c.24-.13.36-.09.35.13a2.44,2.44,0,0,1-.21.8,7,7,0,0,1-.45.91C14.9,32.78,14.77,33,14.67,33Z"/><path class="cls-1" d="M19.19,33.73a1.08,1.08,0,0,0,.73,1.17,6.29,6.29,0,0,1-1.41,2.46A6,6,0,0,1,16.08,39h0l-1.95-2.81a2.83,2.83,0,0,0,2.09-.88,3.08,3.08,0,0,0,.65-.92,2.8,2.8,0,0,0,.23-1.14V18.77a1.74,1.74,0,0,1-1.43-.29,1.55,1.55,0,0,1-.48-1.07A3.63,3.63,0,0,1,15.43,16a6,6,0,0,1,.75-1.44,4.64,4.64,0,0,1,1-1.06,1.13,1.13,0,0,1,1-.28c.31.08.56.37.75.88a6.65,6.65,0,0,1,.27,2.4V30.6h2.72v3.13Z"/><path class="cls-1" d="M25,31.18a1.28,1.28,0,0,0,.93.41,1.14,1.14,0,0,0,.91-.39,2.34,2.34,0,0,0,.47-.93,3.53,3.53,0,0,0,.11-1.13,3.5,3.5,0,0,0-.18-1,2.05,2.05,0,0,1-1.53-.28,1.92,1.92,0,0,1-.72-1,3.1,3.1,0,0,1-.05-1.4,4.7,4.7,0,0,1,.48-1.41,3.07,3.07,0,0,1,.83-1,1.26,1.26,0,0,1,1-.29,1.92,1.92,0,0,1,1.08.82,7.31,7.31,0,0,1,1,2.31,11.71,11.71,0,0,1,.35,1.87,14.8,14.8,0,0,1,.09,2,.61.61,0,0,0,.23.5,1.57,1.57,0,0,0,.61.27,4.34,4.34,0,0,0,.87.1h1.06v3.13h-1.8a1.78,1.78,0,0,1-.85-.3,1.56,1.56,0,0,1-.7-1,5.19,5.19,0,0,1-.38.66,4.88,4.88,0,0,1-.47.55,3.13,3.13,0,0,1-2.43,1,3.21,3.21,0,0,1-2.34-.92H21.69V30.6h2.38l.44,0a.24.24,0,0,1,.16.09.73.73,0,0,1,.07.17A1.07,1.07,0,0,0,25,31.18Zm.59,4.52a1.75,1.75,0,0,1,1.27.51,1.65,1.65,0,0,1,.52,1.24,1.7,1.7,0,0,1-.52,1.27,1.73,1.73,0,0,1-1.27.53,1.66,1.66,0,0,1-1.24-.53,1.73,1.73,0,0,1-.51-1.27,1.74,1.74,0,0,1,1.75-1.75Zm3.79,0a1.71,1.71,0,0,1,1.74,1.75,1.76,1.76,0,0,1-.49,1.27,1.67,1.67,0,0,1-1.25.53,1.72,1.72,0,0,1-1.26-.53,1.74,1.74,0,0,1-.52-1.27,1.69,1.69,0,0,1,.52-1.24A1.74,1.74,0,0,1,29.35,35.7Z"/><path class="cls-1" d="M32.29,30.6a4.34,4.34,0,0,1,1,.1,1.68,1.68,0,0,1,.78.38,2.2,2.2,0,0,1,.53.81,4.4,4.4,0,0,1,.26,1.33,2.19,2.19,0,0,0,.94-.65,2.68,2.68,0,0,0,.88-2.07V18.77a1.7,1.7,0,0,1-1.42-.29,1.48,1.48,0,0,1-.45-1.07A3.81,3.81,0,0,1,35.05,16a6.37,6.37,0,0,1,.76-1.44,4.61,4.61,0,0,1,1-1.06,1.15,1.15,0,0,1,1-.28c.3.08.54.37.73.88a7.25,7.25,0,0,1,.25,2.4V31.08a1.13,1.13,0,0,0,.22.71,1.31,1.31,0,0,0,.51.41,6.43,6.43,0,0,1-1.36,2.47,5.93,5.93,0,0,1-2.45,1.59h0L34.08,34a.51.51,0,0,0-.36-.22H32.29Z"/><path class="cls-1" d="M50.77,33.08a10.13,10.13,0,0,1-.89,3.45,9.68,9.68,0,0,1-1.82,2.68,10,10,0,0,1-2.51,1.91,11.6,11.6,0,0,1-3,1.1,12.69,12.69,0,0,1-3.27.29A13.23,13.23,0,0,1,36,42a9.19,9.19,0,0,1-1.33-.53,6.15,6.15,0,0,1-1-.65c-.32-.25-.65-.54-1-.86s-.73-.73-1.17-1.19l-.27-.28s0-.06,0-.05l.15.07.23.11a18.34,18.34,0,0,0,5.29,1.47,16.65,16.65,0,0,0,5-.16,11.32,11.32,0,0,0,4.51-1.8A6.27,6.27,0,0,0,48.8,35a2.36,2.36,0,0,0,.09-.63c0-.28,0-.53,0-.75-.38.08-.79.14-1.25.19a9.68,9.68,0,0,1-1.43,0,8.26,8.26,0,0,1-1.41-.2,4.19,4.19,0,0,1-1.21-.48,2.56,2.56,0,0,1-.86-.87A2.43,2.43,0,0,1,42.39,31a5.57,5.57,0,0,1,.3-1.72,7.42,7.42,0,0,1,.84-1.72,5.15,5.15,0,0,1,1.28-1.31,2.78,2.78,0,0,1,1.61-.52A3.35,3.35,0,0,1,48.75,27a8.55,8.55,0,0,1,1.58,2.67A7.45,7.45,0,0,1,50.77,33.08Zm-2.89-2.7A2.35,2.35,0,0,0,47,29.3a3.38,3.38,0,0,0-1.25-.51,2,2,0,0,0-1.1.08.72.72,0,0,0-.47.71c0,.66.69,1,2.06,1a5.78,5.78,0,0,0,.83-.05C47.31,30.49,47.59,30.44,47.88,30.38Z"/><path class="cls-1" d="M57.55,11A4.38,4.38,0,0,0,54,12.6c-.08.09-.16.14-.23.13a.25.25,0,0,1-.19-.11.53.53,0,0,1-.09-.23.42.42,0,0,1,0-.25,2.73,2.73,0,0,1,.29-.56,2.07,2.07,0,0,1,.56-.54,5.19,5.19,0,0,1-1.36-.6,1.32,1.32,0,0,1-.46-.61,1.49,1.49,0,0,1-.06-1.07,2.57,2.57,0,0,1,.62-1.11,3,3,0,0,1,1.18-.76,2.74,2.74,0,0,1,1.64,0,1.67,1.67,0,0,1,.83.44.48.48,0,0,1,.11.47.8.8,0,0,1-.28.41.66.66,0,0,1-.32.21,1.81,1.81,0,0,1-.57.12,1.49,1.49,0,0,1-.53,0,.44.44,0,0,1-.29-.21c-.05-.1,0-.24.15-.41a.86.86,0,0,0-.45,0,1.11,1.11,0,0,0-.41.19,1.18,1.18,0,0,0-.31.32.64.64,0,0,0-.12.35.88.88,0,0,0,.62.85,3,3,0,0,0,1.3.13,7.64,7.64,0,0,0,1.43-.25,7,7,0,0,0,1-.34c.21-.1.32-.06.32.12a1.54,1.54,0,0,1-.16.63,5.52,5.52,0,0,1-.38.72A1.32,1.32,0,0,1,57.55,11Zm.14,22.76a1.09,1.09,0,0,0,.73,1.17A6.29,6.29,0,0,1,57,37.36,5.86,5.86,0,0,1,54.58,39h0l-1.94-2.81a2.84,2.84,0,0,0,2.09-.88,3,3,0,0,0,.64-.92,2.8,2.8,0,0,0,.23-1.14V18.77a1.75,1.75,0,0,1-1.43-.29,1.59,1.59,0,0,1-.48-1.07A3.63,3.63,0,0,1,53.93,16a6,6,0,0,1,.75-1.44,4.64,4.64,0,0,1,1-1.06,1.14,1.14,0,0,1,1-.28c.31.08.56.37.76.88a6.93,6.93,0,0,1,.26,2.4Z"/><text class="cls-2" transform="translate(72.62 79.7)">ww.awlia.maa</text><path class="cls-1" d="M72.41,72.06H68.06V51.48h1.22a3.26,3.26,0,0,1,.61-.85l.23-.22v-.35a26.1,26.1,0,0,1-1.76-11.37L72.7,39a20.1,20.1,0,0,0,2,10.55l1.91,3.27H74.47v1.06H73.33l.4,2.12-1.32-.06Z"/><path class="cls-1" d="M89.25,37.48V35.54h-1.7l0-.67c.06-2.66-1.13-3.65-1.18-3.69l-.79-.61.88-.48.8-.46V27.79h1.66c.12-4.06,1.4-5,1.67-5.17l.33-.19.33.19c.27.16,1.55,1.11,1.67,5.17H94.6v1.84l1.68.95-.8.61s-1.23,1-1.17,3.68l0,.67h-1.7v1.94l-1.69,1.17Z"/><path class="cls-1" d="M95.16,46.21V44.28H93.47V43.6C93.54,41,92.35,40,92.3,39.92l-.79-.61.88-.48.8-.46V36.53h1.66c.12-4.06,1.4-5,1.67-5.17l.33-.19.33.19c.27.16,1.55,1.11,1.67,5.17h1.66v1.84l1.68,1-.8.6s-1.23,1-1.17,3.68l0,.68h-1.7v1.93l-1.69,1.17Z"/><path class="cls-1" d="M95.16,28.74V26.8H93.47v-.67c.06-2.65-1.13-3.64-1.18-3.68l-.79-.61.88-.49.8-.45V19.05h1.66c.12-4.05,1.4-5,1.67-5.16l.33-.19.33.19c.27.15,1.55,1.11,1.67,5.16h1.66V20.9l1.68.94-.8.61s-1.23,1-1.17,3.68l0,.67h-1.7v1.94l-1.69,1.17Z"/><path class="cls-1" d="M101,37.48V35.54h-1.7l0-.67c.06-2.66-1.13-3.65-1.18-3.69l-.8-.61.88-.48.81-.46V27.79h1.66c.12-4.06,1.4-5,1.67-5.17l.33-.19.33.19c.27.16,1.55,1.11,1.67,5.17h1.66v1.84l1.68.95-.8.61s-1.23,1-1.17,3.68l0,.67h-1.7v1.94l-1.69,1.17Z"/></g></g></svg>